<?xml version="1.0" encoding="utf-8"?>
<!-- Generator: Adobe Illustrator 17.0.0, SVG Export Plug-In . SVG Version: 6.00 Build 0)  -->
<!DOCTYPE svg PUBLIC "-//W3C//DTD SVG 1.1//EN" "http://www.w3.org/Graphics/SVG/1.1/DTD/svg11.dtd">
<svg version="1.1" id="Layer_1" xmlns="http://www.w3.org/2000/svg" xmlns:xlink="http://www.w3.org/1999/xlink" x="0px" y="0px"
	 width="400px" height="400px" viewBox="0 0 400 400" enable-background="new 0 0 400 400" xml:space="preserve">
<g>
	<path fill="#050000" d="M16,1.54c-0.587,0.258-1.221,0.438-1.885,0.515c0.676-0.404,1.199-1.048,1.445-1.816
		c-0.634,0.377-1.34,0.648-2.087,0.799C12.878,0.402,12.023,0,11.078,0C9.265,0,7.796,1.47,7.796,3.283
		c0,0.257,0.029,0.507,0.086,0.746c-2.73-0.136-5.146-1.44-6.767-3.426C0.836,1.086,0.672,1.652,0.672,2.252
		c0,1.138,0.577,2.143,1.458,2.732c-0.538-0.02-1.042-0.163-1.485-0.41c0,0.013,0,0.026,0,0.041c0,1.589,1.13,2.917,2.633,3.218
		C3.001,7.907,2.712,7.949,2.414,7.949c-0.213,0-0.42-0.021-0.62-0.061c0.416,1.306,1.633,2.253,3.068,2.281
		c-1.122,0.88-2.54,1.404-4.077,1.404c-0.264,0-0.525-0.015-0.785-0.046c1.452,0.932,3.181,1.477,5.033,1.477
		c6.038,0,9.34-5.002,9.34-9.342c0-0.141-0.005-0.282-0.01-0.422C15.004,2.778,15.561,2.2,16,1.54z"/>
</g>
</svg>
