<?xml version="1.0" standalone="no"?>
<!DOCTYPE svg PUBLIC "-//W3C//DTD SVG 1.1//EN" "http://www.w3.org/Graphics/SVG/1.1/DTD/svg11.dtd" >
<svg xmlns="http://www.w3.org/2000/svg">
<metadata></metadata>
<defs>
<font id="vaud_displayregular" horiz-adv-x="1189" >
<font-face units-per-em="2048" ascent="1638" descent="-410" />
<missing-glyph horiz-adv-x="544" />
<glyph horiz-adv-x="2048" />
<glyph horiz-adv-x="2048" />
<glyph unicode="&#xd;" horiz-adv-x="2048" />
<glyph unicode=" "  horiz-adv-x="544" />
<glyph unicode="&#x09;" horiz-adv-x="544" />
<glyph unicode="&#xa0;" horiz-adv-x="544" />
<glyph unicode="!" horiz-adv-x="573" d="M195 20v193q0 20 20 20h172q21 0 21 -20v-193q0 -20 -21 -20h-172q-20 0 -20 20zM199 1436q0 20 20 20h166q21 0 21 -20q-33 -941 -35 -977q0 -21 -21 -21h-104q-21 0 -21 21q-4 103 -8.5 288.5t-10 404.5t-7.5 284z" />
<glyph unicode="&#x22;" horiz-adv-x="841" d="M133 1432q0 20 21 20h153q21 0 21 -20q0 -78 -4 -246q-10 -150 -21 -279q-3 -20 -22 -20h-101q-19 0 -22 20q-3 46 -9.5 139.5t-9.5 139.5q-1 37 -2 78t-2 91t-2 77zM500 1432q0 20 20 20h152q20 0 20 -20q0 -78 -4 -246q-13 -196 -20 -279q-3 -20 -23 -20h-98 q-20 0 -23 20q-13 196 -20 279q-4 168 -4 246z" />
<glyph unicode="#" horiz-adv-x="1386" d="M98 391v107q0 20 21 20h223l55 367h-211q-18 0 -18 20v107q0 20 20 20h236l53 350q3 19 21 19h125q19 0 16 -23l-53 -346h332l53 350q3 19 20 19h127q22 0 19 -23l-52 -346h193q20 0 20 -20v-107q0 -20 -20 -20h-219l-55 -367h202q21 0 21 -20v-107q0 -20 -21 -20h-229 l-53 -353q-3 -18 -21 -18h-127q-21 0 -18 23l53 348h-330l-55 -353q-3 -18 -20 -18h-125q-22 0 -19 23l51 348h-194q-21 0 -21 20zM506 520h330l57 367h-332z" />
<glyph unicode="$" d="M66 418q-3 20 18 20h149q20 0 23 -20q12 -118 87.5 -186t197.5 -80v499q-215 28 -328 122t-113 282q0 162 124.5 271t316.5 124v162q0 20 20 20h74q20 0 20 -20v-166q98 -8 178 -45t132 -93t83.5 -121.5t41.5 -137.5q2 -9 -4 -15t-17 -6h-147q-18 0 -21 19 q-19 101 -81 163.5t-165 75.5v-469q109 -16 188.5 -44.5t140 -76.5t90.5 -121t30 -172q0 -178 -124 -289.5t-325 -125.5v-172q0 -21 -20 -21h-74q-20 0 -20 21v174q-203 14 -332.5 126t-142.5 302zM287 1059q0 -102 63.5 -152.5t188.5 -70.5v452q-114 -7 -183 -70.5 t-69 -158.5zM655 147q119 14 188.5 80t69.5 172q0 98 -63 154.5t-195 75.5v-482z" />
<glyph unicode="%" horiz-adv-x="1890" d="M92 1047q0 190 92 301.5t254 111.5q163 0 254.5 -110.5t91.5 -302.5t-91 -303t-255 -111q-163 0 -254.5 111t-91.5 303zM254 1047q0 -273 184 -273q185 0 185 273q0 272 -185 272q-184 0 -184 -272zM424 23q157 253 453 733.5t417 675.5q9 15 25 12q43 -2 129 -10 q12 -1 15 -8.5t-3 -16.5q-11 -19 -31 -53.5t-24 -40.5q-663 -1068 -819 -1317q-9 -15 -25 -12q-21 2 -62.5 5t-62.5 5q-26 3 -12 27zM1096 381q0 192 92.5 304t253.5 112q163 0 255.5 -112t92.5 -304q0 -191 -91.5 -301.5t-256.5 -110.5q-163 0 -254.5 110t-91.5 302z M1257 381q0 -270 185 -270q184 0 184 270q0 272 -184 272q-185 0 -185 -272z" />
<glyph unicode="&#x26;" horiz-adv-x="1409" d="M115 389q0 74 22.5 136.5t65 113t93.5 89.5t120 77q-83 93 -124.5 168.5t-41.5 167.5q0 146 102 241t258 95q163 0 263 -91.5t100 -234.5q0 -57 -16 -106t-40.5 -85.5t-66 -72.5t-79 -61t-93.5 -58q155 -175 323 -373q69 136 66 342q0 21 20 21h121q9 0 15 -6t6 -15 q-5 -300 -111 -473q73 -84 213 -239q9 -9 5 -17t-17 -8h-182q-12 0 -25 10q-54 64 -104 119q-77 -77 -181.5 -119.5t-226.5 -42.5q-232 0 -358.5 117.5t-126.5 304.5zM303 403q0 -125 80 -198.5t229 -73.5q179 0 287 121q-30 33 -381 434q-105 -61 -160 -124t-55 -159z M430 1141q0 -36 12.5 -72t38.5 -72t45 -58.5t52 -57.5q106 64 142 97q77 71 77 165q0 86 -50.5 134t-134.5 48q-82 0 -132 -48.5t-50 -135.5z" />
<glyph unicode="'" horiz-adv-x="446" d="M127 1432q0 20 20 20h156q21 0 21 -20q-2 -74 -2 -218q-5 -59 -13.5 -165t-11.5 -142q-3 -20 -23 -20h-100q-19 0 -22 20q-2 36 -23 307q0 37 -1 109t-1 109z" />
<glyph unicode="(" horiz-adv-x="595" d="M102 639q0 253 73.5 488t213.5 419q13 13 27 13h112q12 0 16 -7.5t-3 -17.5q-254 -400 -254 -895q0 -490 254 -893q7 -10 3 -17.5t-16 -7.5h-112q-14 0 -27 13q-140 186 -213.5 420t-73.5 485z" />
<glyph unicode=")" horiz-adv-x="595" d="M58 -271.5q-4 7.5 3 17.5q256 404 256 893q0 495 -254 895q-7 10 -3 17.5t16 7.5h112q14 0 27 -13q140 -184 213.5 -419t73.5 -488q0 -251 -73.5 -485t-213.5 -420q-13 -13 -27 -13h-114q-12 0 -16 7.5z" />
<glyph unicode="*" horiz-adv-x="948" d="M84 1122l41 113q6 21 25 12l266 -110l-19 293q-1 9 4.5 14.5t14.5 5.5h125q21 0 18 -20l-20 -293l266 110q18 9 24 -12l41 -113q9 -19 -12 -26l-280 -78l188 -232q15 -15 -2 -28l-98 -72q-16 -13 -29 6l-160 250l-160 -250q-12 -19 -28 -6l-99 72q-17 13 -2 28l191 232 l-283 78q-21 7 -12 26z" />
<glyph unicode="+" horiz-adv-x="1302" d="M133 598v125q0 20 21 20h413v437q0 20 21 20h131q20 0 20 -20v-439h412q20 0 20 -20v-125q0 -21 -20 -21h-414v-452q0 -21 -20 -21h-131q-9 0 -15 6t-6 15v455h-411q-21 0 -21 20z" />
<glyph unicode="," horiz-adv-x="516" d="M133 23v227q0 18 21 18h190q18 0 18 -20v-234q-5 -109 -39.5 -183.5t-115.5 -127.5q-15 -12 -27 2q-5 5 -41 47q-15 14 0 29q50 42 70.5 93.5t23.5 127.5h-79q-9 0 -15 6t-6 15z" />
<glyph unicode="-" horiz-adv-x="858" d="M117 543v139q0 20 20 20h582q20 0 20 -20v-139q0 -21 -20 -21h-582q-20 0 -20 21z" />
<glyph unicode="." horiz-adv-x="514" d="M139 20v216q0 18 21 18h192q21 0 21 -21v-213q0 -20 -21 -20h-192q-21 0 -21 20z" />
<glyph unicode="/" horiz-adv-x="735" d="M-73.5 -5q-4.5 7 1.5 17l711 1442q8 14 25 14h131q12 0 16 -7t-2 -17l-707 -1442q-8 -14 -24 -14h-135q-12 0 -16.5 7z" />
<glyph unicode="0" d="M92 711q0 130 16 238t53 203t94 160t143.5 102.5t197.5 37.5q500 0 500 -741q0 -130 -15 -237.5t-51 -203t-92.5 -160.5t-144 -103t-201.5 -38q-113 0 -199.5 37.5t-143 102.5t-92 160.5t-50.5 203t-15 238.5zM291 711q0 -67 2.5 -121.5t10.5 -115t21.5 -107t36.5 -90.5 t54.5 -73t76.5 -46t101 -17t100.5 17t76 45.5t54.5 72.5t36.5 90.5t22 107t11 115.5t2.5 122q0 96 -6 170.5t-25.5 152t-51.5 128.5t-88 83.5t-132 32.5q-56 0 -100.5 -17t-76 -45.5t-54.5 -72.5t-36.5 -90.5t-22 -106.5t-11 -114.5t-2.5 -120.5z" />
<glyph unicode="1" d="M250 1001v152q0 16 12 25q56 39 169 115.5t169 115.5q11 8 27 8h131q20 0 20 -20v-1377q0 -20 -20 -20l-150 -2q-20 0 -20 20v1178q-52 -34 -157 -103.5t-157 -103.5q-10 -7 -17 -3.5t-7 15.5z" />
<glyph unicode="2" d="M139 1053q12 83 45 153.5t87.5 126.5t139.5 87.5t191 31.5q199 0 316.5 -108.5t117.5 -290.5q0 -134 -67.5 -256t-208.5 -250q-19 -16 -176 -186.5t-178 -188.5h624q21 0 21 -20v-132q0 -20 -21 -20h-866q-19 0 -19 20v125q0 10 11 25q39 38 229.5 243.5t218.5 231.5 q120 110 178 205t58 194q0 109 -65 172.5t-175 63.5q-119 0 -184 -58.5t-86 -172.5q-6 -19 -23 -19h-147q-24 0 -21 23z" />
<glyph unicode="3" d="M102 389q-1 9 4.5 15t14.5 6l149 2q20 0 23 -21q28 -250 289 -250q130 0 204 67t74 191q0 128 -74.5 191t-207.5 63h-101q-20 0 -20 21v131q0 18 20 18h107q119 0 184.5 60.5t65.5 175.5q0 101 -67.5 162t-182.5 61q-122 0 -191.5 -53.5t-91.5 -165.5q-3 -19 -20 -19 h-150q-20 0 -20 21q11 168 139.5 278.5t335.5 110.5q202 0 322 -107t120 -276q0 -111 -53.5 -196t-155.5 -127q117 -40 178.5 -133.5t61.5 -215.5q0 -198 -127 -315t-346 -117q-117 0 -209 34t-149.5 93.5t-89 134t-36.5 160.5z" />
<glyph unicode="4" d="M82 371v102q0 16 8 27l643 899q9 12 25 12h157q19 0 19 -20v-885h158q20 0 20 -21v-116q0 -21 -20 -21h-160v-328q0 -20 -21 -20h-153q-21 0 -21 20v330h-635q-20 0 -20 21zM285 506h454v637z" />
<glyph unicode="5" d="M131 373q-1 9 4.5 14.5t14.5 5.5l153 -2q18 0 21 -18q36 -238 284 -238q135 0 206 84t71 238q0 140 -68 221.5t-205 81.5q-167 0 -258 -113q-12 -12 -26 -12h-146q-21 0 -18 20l43 742q3 20 22 20h760q19 0 19 -20v-131q0 -19 -21 -19h-614l-31 -428q109 109 301 109 q108 0 192 -36t136 -100t79 -148t27 -183q0 -229 -124 -361.5t-345 -132.5q-209 0 -333.5 107t-143.5 299z" />
<glyph unicode="6" d="M121 657q0 182 28 324t87.5 249.5t159 164.5t235.5 57q185 0 294 -95t134 -249q3 -10 -2.5 -16.5t-16.5 -6.5h-147q-20 0 -23 19q-23 90 -80.5 136t-162.5 46q-305 0 -316 -528q55 82 142.5 125t193.5 43q216 0 329.5 -128.5t113.5 -344.5q0 -214 -128.5 -349 t-351.5 -135q-113 0 -200.5 40.5t-141 105.5t-87.5 157t-47 185t-13 200zM336 463q0 -139 71 -234.5t203 -95.5q137 0 213 88t76 232q0 139 -69 226t-212 87q-123 0 -202.5 -82t-79.5 -221z" />
<glyph unicode="7" d="M98 1268v131q0 20 21 20h911q21 0 21 -20v-127q0 -13 -7 -27q-126 -247 -287.5 -620t-240.5 -609q-6 -16 -24 -16l-168 2q-11 0 -15.5 6.5t-1.5 16.5q87 241 251.5 614.5t283.5 607.5h-723q-9 0 -15 6t-6 15z" />
<glyph unicode="8" d="M96 389q0 119 68.5 211t171.5 133q-92 41 -148.5 128t-56.5 198q0 181 125 288t338 107q216 0 338.5 -106t122.5 -289q0 -111 -55.5 -197t-147.5 -127q104 -42 172 -134t68 -212q0 -196 -135.5 -309t-362.5 -113q-228 0 -363 113t-135 309zM291 393q0 -123 80 -192.5 t225 -69.5q143 0 223 70.5t80 191.5q0 119 -77 187.5t-226 68.5q-151 0 -228 -69t-77 -187zM322 1053q0 -115 70.5 -177.5t201.5 -62.5q133 0 202.5 63t69.5 179q0 106 -70.5 171.5t-201.5 65.5t-201.5 -66t-70.5 -173z" />
<glyph unicode="9" d="M94 967q0 214 129 349.5t350 135.5q244 0 369 -188q121 -175 121 -512q0 -93 -5 -171.5t-19.5 -161t-37.5 -147t-61 -123t-89 -97t-122.5 -61t-159.5 -22.5q-193 0 -305 92t-131 252q-1 9 5 15t16 6h147q18 0 21 -19q17 -89 80 -136.5t169 -47.5q56 0 100.5 16t75 42.5 t53.5 68t36 84.5t21 100.5t11 107.5t4 114q-55 -81 -142.5 -125.5t-190.5 -44.5q-215 0 -330 128.5t-115 344.5zM287 967q0 -138 69 -226t211 -88q109 0 185 64q98 88 98 248q-2 136 -73.5 228.5t-203.5 92.5q-135 0 -210.5 -87.5t-75.5 -231.5z" />
<glyph unicode=":" horiz-adv-x="540" d="M143 23v227q0 20 21 20h219q20 0 20 -20v-230q0 -18 -20 -18h-219q-21 0 -21 21zM143 817v227q0 9 6 15t15 6h219q20 0 20 -21v-229q0 -18 -20 -18h-219q-21 0 -21 20z" />
<glyph unicode=";" horiz-adv-x="540" d="M145 819v230q0 18 21 18h219q21 0 21 -20v-230q0 -18 -21 -18h-219q-21 0 -21 20zM152 23v227q0 18 20 18h211q18 0 18 -20v-234q-3 -109 -37.5 -183.5t-117.5 -127.5q-15 -12 -27 2q-36 42 -41 47q-14 14 0 29q52 42 72 93.5t22 127.5h-100q-20 0 -20 21z" />
<glyph unicode="&#x3c;" horiz-adv-x="1093" d="M143 610v121q0 15 13 25l772 516q10 6 17 2t7 -17v-141q0 -16 -14 -24l-645 -414l651 -436q12 -9 12 -25l-2 -137q0 -12 -7 -15.5t-17 3.5l-774 518q-13 10 -13 24z" />
<glyph unicode="=" horiz-adv-x="1314" d="M184 346v123q0 20 21 20h905q18 0 18 -20v-123q0 -20 -20 -20h-905q-19 0 -19 20zM184 795v120q0 21 21 21h905q18 0 18 -21v-120q0 -21 -20 -21h-905q-19 0 -19 21z" />
<glyph unicode="&#x3e;" horiz-adv-x="1093" d="M145 80v139q0 16 15 25l647 418l-647 434q-13 10 -13 24v137q0 13 7.5 17t17.5 -2l772 -533q12 -9 12 -24v-121q0 -17 -14 -25l-772 -501q-10 -7 -17.5 -3.5t-7.5 15.5z" />
<glyph unicode="?" horiz-adv-x="1032" d="M55 1090q23 177 145.5 286t327.5 109q196 0 315.5 -107.5t119.5 -275.5q0 -112 -46 -192t-131 -152q-11 -10 -38.5 -35.5t-37 -35t-29.5 -30t-28 -32.5t-19.5 -31t-17 -38t-8.5 -40q-8 -38 -10 -72q0 -20 -20 -20h-150q-20 0 -20 20q2 62 13.5 113.5t27 87.5t46 73 t56 61.5t70.5 62.5q66 56 103.5 113t37.5 135q0 101 -63.5 163t-174.5 62q-123 0 -190 -56t-86 -174q-3 -18 -21 -18h-151q-24 0 -21 23zM393 20v197q0 9 6 15t15 6h178q18 0 18 -21v-197q0 -20 -20 -20h-178q-19 0 -19 20z" />
<glyph unicode="@" horiz-adv-x="1943" d="M125 520q0 175 50 325.5t135.5 257t200.5 182.5t245 112.5t268 36.5q172 0 319.5 -48.5t257 -139t172 -229.5t62.5 -310q0 -169 -53.5 -304t-155 -213.5t-233.5 -78.5q-182 0 -219 153q-100 -158 -283 -158q-160 0 -248 109.5t-88 273.5q0 142 51 257t148 183t223 68 q76 0 139 -36.5t96 -104.5l56 105q8 14 24 14h82q10 0 16 -6t5 -15q-9 -64 -38.5 -289.5t-35.5 -273.5q-4 -20 -4 -22v-13q0 -50 22.5 -78t65.5 -28q120 0 193 127.5t73 322.5q0 278 -176.5 431t-470.5 153q-323 0 -525 -211t-202 -551q0 -196 80 -349.5t232.5 -241 t353.5 -87.5q155 0 268.5 31.5t206.5 99.5q15 9 28 -2q9 -9 33 -32.5t33 -32.5q16 -16 0 -29q-109 -95 -245.5 -139.5t-332.5 -44.5q-185 0 -340 60.5t-262.5 169t-167 261.5t-59.5 334zM735 498q0 -114 49.5 -178t133.5 -64q202 0 241 256q17 70 17 139q-3 88 -49 144.5 t-138 56.5q-114 0 -184 -100t-70 -254z" />
<glyph unicode="A" horiz-adv-x="1335" d="M23 25l534 1417q6 16 23 16h174q16 0 22 -16l535 -1417q1 -4 1 -8q0 -6 -3 -10q-5 -7 -15 -7h-170q-18 0 -24 16l-127 344h-619l-127 -344q-6 -16 -24 -16h-164q-11 0 -15 7q-3 4 -2 10q0 4 1 8zM416 539h495l-249 678z" />
<glyph unicode="B" horiz-adv-x="1329" d="M176 23v1415q0 18 21 18h499q248 0 377 -101t129 -276q0 -108 -49 -190.5t-154 -126.5q124 -49 182 -138.5t58 -203.5l-2 2q0 -199 -135.5 -309.5t-386.5 -110.5h-518q-9 0 -15 6t-6 15zM373 174h340q323 0 323 250q0 130 -79.5 190t-233.5 60h-350v-500zM373 846h340 q142 0 214 53t72 172q0 115 -78 166t-227 51h-321v-442z" />
<glyph unicode="C" horiz-adv-x="1370" d="M102 727q0 127 23 239.5t72.5 208.5t121 165.5t174 109t226.5 39.5q229 0 373.5 -131.5t181.5 -343.5q3 -23 -17 -23h-163q-17 0 -23 19q-26 141 -113.5 220t-236.5 79q-90 0 -161.5 -32.5t-117.5 -86.5t-76 -130t-42.5 -158t-12.5 -175q0 -92 12.5 -174t43 -157.5 t76.5 -129.5t117 -86.5t161 -32.5q156 0 244.5 81.5t111.5 224.5q3 18 21 18h166q20 0 20 -17q0 -194 -178 -352q-150 -132 -387 -133q-127 0 -230.5 38.5t-174.5 107t-119.5 164.5t-70.5 208t-22 240z" />
<glyph unicode="D" horiz-adv-x="1429" d="M176 23v1415q0 18 21 18h501q135 0 241.5 -37t178 -101.5t118 -157t67 -198t20.5 -229.5l-2 2q0 -125 -22 -232.5t-71.5 -200.5t-123.5 -159t-183.5 -103.5t-246.5 -37.5h-479q-19 0 -19 21zM375 180h276q110 0 192.5 30t133 79t81.5 122.5t42.5 150t11.5 171.5 t-10.5 171t-40 148.5t-77.5 120.5t-127.5 77.5t-184.5 29.5h-297v-1100z" />
<glyph unicode="E" horiz-adv-x="1247" d="M176 20l4 1412q0 20 21 20h932q18 0 18 -20v-138q0 -20 -21 -20h-749v-430h678q20 0 20 -21v-137q0 -20 -20 -20h-680v-488h760q18 0 18 -20v-138q0 -20 -20 -20h-942q-19 0 -19 20z" />
<glyph unicode="F" horiz-adv-x="1181" d="M176 20l2 1412q0 20 21 20h897q20 0 20 -20v-138q0 -20 -20 -20h-717v-463h653q21 0 21 -20v-138q0 -20 -21 -20h-655v-615q0 -18 -21 -18h-159q-21 0 -21 20z" />
<glyph unicode="G" horiz-adv-x="1433" d="M106 725q0 128 24.5 242t75.5 210t124.5 165t176.5 108t226 39q229 0 377 -121.5t174 -310.5q3 -23 -20 -23q-25 0 -79 1t-81 1q-17 0 -23 19q-23 123 -112.5 189.5t-235.5 66.5q-92 0 -164.5 -32.5t-119.5 -87t-78.5 -130.5t-44.5 -158.5t-13 -175.5q0 -95 12.5 -176.5 t44 -158t79.5 -130t123.5 -85.5t172.5 -32q128 0 215 65.5t122 167.5q28 81 28 176q0 25 -2 50h-350q-19 0 -19 21v129q0 18 21 18h518q18 0 18 -20v-734q0 -18 -20 -18h-70q-19 0 -22 18q-6 35 -19.5 106.5t-19.5 106.5q-35 -115 -147 -187.5t-255 -74.5q-132 0 -239 38.5 t-180.5 106.5t-123 163.5t-72 207t-22.5 240.5z" />
<glyph unicode="H" horiz-adv-x="1458" d="M176 20v1416q0 20 21 20h159q21 0 21 -20v-584h700v582q0 20 21 20h159q21 0 21 -20v-1416q0 -20 -21 -20h-159q-21 0 -21 20v644h-700v-642q0 -20 -21 -20h-159q-21 0 -21 20z" />
<glyph unicode="I" horiz-adv-x="557" d="M176 20v1416q0 20 21 20h159q21 0 21 -20v-1416q0 -20 -21 -20h-159q-21 0 -21 20z" />
<glyph unicode="J" horiz-adv-x="1132" d="M37 433q0 7 4 12q5 6 14 6l160 2q20 0 23 -21q28 -285 274 -285q148 0 207 87.5t59 257.5v944q0 20 21 20h157q21 0 21 -20v-985q0 -229 -122.5 -355.5t-342.5 -126.5q-218 0 -339 119q-136 135 -136 345z" />
<glyph unicode="K" horiz-adv-x="1353" d="M176 20v1416q0 20 21 20h159q21 0 21 -20v-709l659 719q13 10 25 10h186q14 0 18 -7.5t-5 -16.5l-472 -525l533 -884q4 -7 4 -12q0 -3 -2 -6q-4 -7 -16 -7h-189q-16 0 -24 14l-447 752l-270 -295v-449q0 -20 -21 -20h-159q-21 0 -21 20z" />
<glyph unicode="L" horiz-adv-x="1142" d="M176 20l2 1416q0 20 21 20h159q21 0 21 -20v-1256h706q19 0 19 -20v-140q0 -20 -21 -20h-888q-19 0 -19 20z" />
<glyph unicode="M" horiz-adv-x="1771" d="M174 1434q0 20 21 20h223q17 0 22 -16q24 -61 210 -553t237 -615q46 115 226.5 591t219.5 577q5 16 23 16h213q20 0 20 -20v-1416q0 -20 -20 -20h-148q-20 0 -20 20v1121q-6 -14 -99.5 -258t-198.5 -517.5t-134 -345.5q-5 -16 -23 -16h-131q-17 0 -22 16 q-39 97 -212 551.5t-219 565.5v-1115q0 -20 -20 -20h-145q-21 0 -21 20z" />
<glyph unicode="N" horiz-adv-x="1474" d="M176 20v1416q0 20 21 20h168q16 0 24 -14l713 -1108v1102q0 18 20 18h154q20 0 20 -20v-1416q0 -20 -20 -20h-164q-17 0 -25 14l-714 1110v-1104q0 -18 -21 -18h-157q-19 0 -19 20z" />
<glyph unicode="O" horiz-adv-x="1468" d="M104 727q0 127 23.5 239.5t74 209t123.5 166t178 108.5t232 39q159 0 281 -59t196.5 -164t112 -240.5t37.5 -296.5q0 -160 -36.5 -294.5t-110 -240t-196.5 -165.5t-284 -60q-129 0 -234.5 39t-178.5 108t-122.5 165t-72.5 207.5t-23 238.5zM311 727q0 -93 12 -173.5 t42.5 -157t77.5 -130.5t121.5 -86.5t170.5 -32.5q95 0 168.5 32.5t120.5 86.5t77 130t42 157t12 174t-12 173.5t-42 157.5t-77 131t-120.5 87t-168.5 33q-96 0 -171 -33t-122 -87t-77 -131t-42 -157.5t-12 -173.5z" />
<glyph unicode="P" horiz-adv-x="1280" d="M174 1436q0 20 21 20h497q268 0 395 -119t127 -325q0 -103 -30 -185t-92 -143.5t-163.5 -95t-236.5 -33.5h-317v-535q0 -20 -21 -20h-157q-21 0 -21 20zM375 731h313q324 0 324 279q0 137 -78 204.5t-246 67.5h-313v-551z" />
<glyph unicode="Q" horiz-adv-x="1468" d="M104 727q0 392 197 592q165 170 432 170q158 0 280 -59t197 -163.5t113.5 -240.5t38.5 -297q0 -395 -188 -586q28 -34 82.5 -102t82.5 -102q13 -20 -8 -29q-18 -8 -54.5 -25.5t-55.5 -25.5q-6 -4 -12 -4q-9 0 -17 10q-29 36 -85 102.5t-65 77.5q-136 -76 -309 -76 q-159 0 -282 59.5t-197.5 164.5t-112 239.5t-37.5 294.5zM311 727q0 -93 12 -173.5t42 -157.5t76.5 -131t121 -87t170.5 -33q113 0 193 48q-31 39 -95.5 116.5t-95.5 116.5q-13 20 6 29q113 52 115 53q16 10 29 -6q27 -35 81.5 -102.5t82.5 -102.5q106 137 106 430 q0 93 -12.5 175t-43 158t-77.5 130t-121 86.5t-168 32.5q-95 0 -169.5 -32.5t-121 -87t-77 -131t-42.5 -157.5t-12 -174z" />
<glyph unicode="R" horiz-adv-x="1327" d="M176 23v1415q0 18 21 18h510q140 0 244 -35t163 -96t87 -135t28 -162q0 -142 -68 -244t-196 -151q54 -120 160.5 -348t121.5 -260q3 -6 3 -10t-2 -8q-4 -7 -17 -7h-180q-17 0 -23 14q-30 69 -260 576h-393v-567q0 -21 -21 -21h-157q-9 0 -15 6t-6 15zM375 764h340 q307 0 307 264q0 121 -78 187.5t-242 66.5h-327v-518z" />
<glyph unicode="S" horiz-adv-x="1302" d="M80 414q-3 20 18 20h164q18 0 21 -18q23 -138 121.5 -206.5t257.5 -68.5q163 0 247 73t84 196q0 56 -20 96t-52 64t-89 41t-114.5 27t-144.5 22q-21 2 -32 4q-428 59 -428 409q0 42 14 74q26 160 170.5 251t347.5 91q120 0 219.5 -33.5t165.5 -90.5t106 -130t50 -156 q1 -9 -4.5 -14.5t-16.5 -5.5h-157q-17 0 -23 18q-24 113 -109.5 175.5t-228.5 62.5q-150 0 -241 -60.5t-91 -175.5q0 -31 6 -56.5t14.5 -45.5t27 -36.5t34.5 -28t46 -21.5t53 -16.5t63.5 -14t69 -12t79.5 -12t85 -13.5q417 -71 417 -422q0 -202 -151 -317t-397 -115 q-158 0 -281.5 46.5t-205 148.5t-95.5 250z" />
<glyph unicode="T" horiz-adv-x="1179" d="M29 1294v140q0 20 20 20h1081q19 0 19 -20v-140q0 -20 -21 -20h-440v-1254q0 -20 -20 -20h-158q-21 0 -21 20v1256l-440 -2q-20 0 -20 20z" />
<glyph unicode="U" horiz-adv-x="1406" d="M150 567l4 875q0 18 20 18h160q20 0 20 -20v-873q0 -417 353 -417q348 0 348 417v873q0 18 20 18h160q20 0 20 -20v-873q0 -289 -141.5 -443.5t-408.5 -154.5q-271 0 -413 154.5t-142 445.5z" />
<glyph unicode="V" horiz-adv-x="1296" d="M25 1436q-1 4 -1 7q0 5 2 9q4 6 15 6h176q19 0 25 -16l409 -1174l412 1174q6 16 24 16h168q10 0 15 -6q3 -4 3 -10q0 -3 -1 -6l-516 -1420q-6 -16 -25 -16h-166q-18 0 -24 16z" />
<glyph unicode="W" horiz-adv-x="1849" d="M45 1436q-1 5 -1 8q0 14 17 14h170q20 0 23 -18l260 -1141l317 1135q3 16 23 16h158q19 0 22 -16l314 -1133l258 1139q3 18 22 18h160q17 0 17 -14q0 -4 -1 -8l-342 -1418q-3 -18 -22 -18h-170q-20 0 -23 16l-321 1147l-322 -1147q-3 -16 -22 -16h-166q-20 0 -23 18z" />
<glyph unicode="X" horiz-adv-x="1265" d="M36 7q-1 2 -2 5q0 6 5 13l475 731l-455 678q-6 10 -2 17t17 7h180q17 0 25 -14l354 -539l356 541q9 12 25 12h170q12 0 15.5 -7t-3.5 -17l-451 -684l482 -725q4 -7 4 -12q0 -3 -2 -6q-4 -7 -17 -7h-180q-16 0 -24 14l-381 582l-379 -582q-8 -14 -25 -14h-172q-11 0 -15 7 z" />
<glyph unicode="Y" horiz-adv-x="1236" d="M23 1449q4 7 16 7h178q17 0 25 -14l379 -666l380 666q8 14 25 14h166q12 0 16 -7q2 -3 2 -6q0 -5 -4 -11l-487 -844v-568q0 -20 -21 -20h-157q-21 0 -21 20v570l-495 842q-4 6 -4 11q0 3 2 6z" />
<glyph unicode="Z" horiz-adv-x="1230" d="M70 20v142q0 15 8 26l831 1090h-803q-20 0 -20 20v138q0 20 20 20h1022q21 0 21 -20v-144q0 -15 -8 -26l-828 -1088h834q18 0 18 -20v-138q0 -20 -20 -20h-1057q-18 0 -18 20z" />
<glyph unicode="[" horiz-adv-x="651" d="M186 -242l2 1760q0 20 21 20h383q18 0 18 -20v-111q0 -21 -20 -21h-230v-1497h230q18 0 18 -20v-111q0 -20 -20 -20h-383q-19 0 -19 20z" />
<glyph unicode="\" horiz-adv-x="753" d="M16 1468q-3 9 2 16t15 7h131q18 0 24 -16l537 -1465q3 -9 -1.5 -15.5t-14.5 -6.5h-131q-19 0 -25 16z" />
<glyph unicode="]" horiz-adv-x="651" d="M39 -129q0 20 20 20h232v1498h-232q-18 0 -18 20v111q0 20 20 20h385q19 0 19 -20v-1764q0 -18 -21 -18h-385q-18 0 -18 20z" />
<glyph unicode="^" horiz-adv-x="1144" d="M125 730.5q-4 7.5 2 17.5l356 706q8 14 25 14h131q17 0 25 -14l354 -706q6 -10 2 -17.5t-16 -7.5h-164q-17 0 -25 14l-246 506l-245 -506q-8 -14 -25 -14h-158q-12 0 -16 7.5z" />
<glyph unicode="_" horiz-adv-x="1083" d="M29 -150q0 21 20 21h985q19 0 19 -21v-77q0 -21 -21 -21h-985q-18 0 -18 21v77z" />
<glyph unicode="`" horiz-adv-x="1009" d="M187 1485q3 8 16 8h207q11 0 24 -10l219 -246q9 -9 5.5 -17t-15.5 -8h-151q-17 0 -25 11l-272 245q-11 9 -8 17z" />
<glyph unicode="a" horiz-adv-x="1130" d="M80 293q0 53 13.5 98t32 77.5t57.5 59t67.5 43.5t86.5 31t91 20.5t103.5 12.5t102 7.5t107.5 4.5q31 1 47 2v64q0 217 -227 217q-103 0 -165 -40t-77 -114q-6 -19 -24 -16q-90 4 -139 8q-11 0 -16.5 6.5t-2.5 16.5q24 145 135.5 217.5t292.5 72.5q412 0 412 -409v-652 q0 -20 -21 -20h-96q-19 0 -22 16l-39 134q-52 -80 -144.5 -129.5t-210.5 -49.5q-163 0 -263.5 86.5t-100.5 235.5zM272 297q0 -80 52.5 -125t146.5 -45q149 0 232 84.5t83 216.5v78q-75 -3 -122 -5t-103.5 -7t-90 -11.5t-70.5 -17t-57.5 -25.5t-38.5 -35.5t-25 -47t-7 -60.5 z" />
<glyph unicode="b" horiz-adv-x="1224" d="M158 20v1430q0 20 20 20h148q20 0 20 -20v-532q53 77 138 120t190 43q146 0 249 -75t151 -197.5t48 -280.5q0 -247 -120.5 -402t-335.5 -155q-99 0 -184.5 41.5t-141.5 126.5q-28 -73 -49 -123q-5 -16 -23 -16h-90q-20 0 -20 20zM344 539q0 -189 71 -296.5t222 -107.5 q142 0 215.5 106t73.5 289q0 180 -74.5 286t-208.5 106q-148 0 -223.5 -103.5t-75.5 -271.5v-8z" />
<glyph unicode="c" horiz-adv-x="1110" d="M100 524q0 119 31 220t91 177t154.5 119t213.5 43q180 0 294 -102.5t128 -259.5q1 -9 -4.5 -15t-14.5 -6h-149q-17 0 -23 19q-18 92 -77 145.5t-158 53.5q-81 0 -139.5 -33t-90 -90.5t-45.5 -123t-14 -143.5q0 -79 14 -145.5t45.5 -124t89.5 -90.5t138 -33 q104 0 164.5 54.5t80.5 150.5q3 18 21 18h154q20 0 20 -17q0 -147 -141 -269q-114 -98 -299 -99q-121 0 -215 41.5t-152 116.5t-87.5 174.5t-29.5 218.5z" />
<glyph unicode="d" horiz-adv-x="1224" d="M100 522q0 160 50.5 284.5t155.5 199.5t251 75q97 0 181 -39.5t136 -113.5v520q0 20 21 20h147q21 0 21 -20v-1428q0 -20 -21 -20h-94q-18 0 -24 16l-43 131q-53 -85 -140.5 -130.5t-193.5 -45.5q-146 0 -249 75t-150.5 197t-47.5 279zM297 526q0 -183 75.5 -288 t209.5 -105q99 0 168 52t100 134.5t31 188.5v8q0 190 -71 297t-224 107q-139 0 -214 -108t-75 -286z" />
<glyph unicode="e" horiz-adv-x="1148" d="M100 522q0 251 132.5 406t357.5 155q224 0 345.5 -146.5t121.5 -379.5h2q0 -7 -1 -28t-1 -33q0 -21 -21 -21h-741q3 -152 80.5 -250t218.5 -98q203 0 252 164q3 18 22 18h146q21 0 18 -22q-30 -149 -148 -232.5t-292 -83.5q-232 0 -362 151.5t-130 399.5zM297 618h569 q-2 141 -71.5 226.5t-204.5 85.5q-132 0 -209.5 -86.5t-83.5 -225.5z" />
<glyph unicode="f" horiz-adv-x="727" d="M41 913v117q0 19 20 19h160v108q0 154 89.5 241t240.5 87q89 0 166 -19q19 -3 16 -22l-12 -113q-3 -19 -23 -16q-49 10 -118 10q-78 0 -122 -41t-44 -125v-110h262q18 0 18 -21v-117q0 -18 -20 -18h-262v-873q0 -20 -21 -20h-149q-21 0 -21 20v875l-160 -2q-20 0 -20 20z " />
<glyph unicode="g" horiz-adv-x="1150" d="M96 -168q0 72 38 133.5t104 93.5q-52 22 -85.5 71.5t-33.5 102.5q0 130 125 205q-105 105 -105 258q0 173 117 274t293 101q136 0 242 -70q43 12 64.5 47.5t21.5 84.5v6q-6 22 16 22h98q20 0 23 -16q4 -14 4 -37v-14q0 -61 -33.5 -112t-93.5 -77q70 -93 70 -211 q0 -168 -119.5 -269t-292.5 -101q-102 0 -189 38q-77 -36 -77 -102q0 -65 82 -84l24 -6q18 -4 57 -4h234q164 0 268 -68q36 -28 51 -45q76 -82 76 -200q0 -120 -80 -203q-126 -131 -420 -131q-131 0 -232 27.5t-173 99.5q-74 77 -74 186zM258 -154q0 -66 45 -108 q78 -72 268 -72q209 0 285 74q47 47 47 110q0 64 -41 105q-58 58 -213 61h-231q-22 -3 -51 -10q-48 -18 -78.5 -59.5t-30.5 -100.5zM313 696q0 -103 66 -166t170 -63q105 0 171 63t66 166q0 104 -66 168t-171 64q-104 0 -170 -64.5t-66 -167.5z" />
<glyph unicode="h" horiz-adv-x="1191" d="M160 20v1428q0 20 20 20h148q20 0 20 -20v-549q59 89 148 135.5t190 46.5q176 0 267 -100.5t91 -284.5v-678q0 -18 -20 -18l-152 -2q-20 0 -20 20v646q0 126 -50.5 185.5t-158.5 59.5q-100 0 -168.5 -52t-97.5 -132t-29 -182v-525q0 -18 -20 -18h-148q-20 0 -20 20z" />
<glyph unicode="i" horiz-adv-x="520" d="M154 1270v170q0 18 20 18h170q21 0 21 -20v-168q0 -21 -21 -21h-170q-20 0 -20 21zM164 20v1012q0 19 20 19h152q20 0 20 -21v-1010q0 -20 -20 -20h-152q-20 0 -20 20z" />
<glyph unicode="j" horiz-adv-x="538" d="M-100 -360q1 13 3 37t4 44t5 37q0 9 6.5 14t15.5 3q63 -13 111 -13q139 0 139 160v1110q0 9 6 15t15 6h149q21 0 21 -21l2 -1104q0 -334 -293 -334h-12q-69 0 -156 23q-16 3 -16 18v5zM172 1274v168q0 18 21 18h169q21 0 21 -20v-168q0 -19 -21 -19h-169q-9 0 -15 6 t-6 15z" />
<glyph unicode="k" horiz-adv-x="1118" d="M158 20v1428q0 20 20 20h148q20 0 20 -20v-877l473 469q11 11 25 11h184q13 0 16 -8t-6 -17l-352 -354l404 -649q3 -6 3 -11q1 -4 -1 -7q-4 -7 -17 -7h-174q-16 0 -24 14l-326 533l-205 -203v-322q0 -20 -20 -20h-148q-20 0 -20 20z" />
<glyph unicode="l" horiz-adv-x="538" d="M158 20v1428q0 20 20 20h148q20 0 20 -20v-1428q0 -20 -20 -20h-148q-20 0 -20 20z" />
<glyph unicode="m" horiz-adv-x="1785" d="M158 20v1010q0 21 20 21h78q17 0 23 -17l63 -141q56 90 137 139t180 49q234 0 306 -196q122 196 342 196q164 0 248.5 -95t84.5 -275v-693q0 -18 -20 -18l-154 -4q-20 0 -20 20v656q0 127 -45.5 183t-145.5 56q-103 0 -183.5 -87t-80.5 -206v-600q0 -20 -20 -20h-148 q-20 0 -20 20v656q0 124 -45.5 181.5t-143.5 57.5q-109 0 -187.5 -92t-78.5 -233v-568q0 -20 -20 -20h-150q-20 0 -20 20z" />
<glyph unicode="n" horiz-adv-x="1191" d="M154 1030q0 19 20 19h84q17 0 23 -17l57 -143q58 94 149.5 142t196.5 48q175 0 265.5 -100t90.5 -285v-678q0 -18 -20 -18h-150q-20 0 -20 20v646q0 126 -50.5 185.5t-158.5 59.5q-63 0 -113 -20.5t-83.5 -56.5t-56 -86t-32.5 -106t-10 -120v-500q0 -20 -20 -20h-148 q-20 0 -20 20z" />
<glyph unicode="o" d="M100 526q0 250 132 403.5t364 153.5q235 0 364.5 -153t129.5 -402q0 -164 -56 -288.5t-169.5 -196.5t-270.5 -72q-159 0 -272 72t-167.5 195.5t-54.5 287.5zM297 528q0 -82 15.5 -149.5t49 -124t92.5 -88t140 -31.5q66 0 118 21.5t85.5 58t55.5 87.5t31 106.5t9 119.5 q0 63 -9.5 118.5t-31.5 106t-55.5 86.5t-85 57.5t-117.5 21.5q-80 0 -139 -32t-92.5 -88t-49.5 -123.5t-16 -146.5z" />
<glyph unicode="p" horiz-adv-x="1224" d="M158 -379v1411q0 21 20 21h92q18 0 25 -17l47 -131q55 86 143 132t193 46q111 0 197 -43t140 -119.5t81.5 -175.5t27.5 -215h-2q0 -161 -50.5 -285.5t-155.5 -199t-250 -74.5q-99 0 -182 38.5t-138 115.5v-506q0 -18 -20 -18h-148q-20 0 -20 20zM342 545q0 -412 295 -412 q138 0 212.5 107t74.5 288q0 182 -74 286t-209 104q-146 0 -222.5 -104.5t-76.5 -268.5z" />
<glyph unicode="q" horiz-adv-x="1224" d="M100 524q0 159 51.5 283.5t156.5 199t249 74.5q96 0 182.5 -42.5t143.5 -127.5l43 123q7 17 24 17h94q21 0 21 -21v-1411q0 -20 -21 -20l-149 -2q-21 0 -21 20v514q-52 -76 -137.5 -119t-189.5 -43q-147 0 -249.5 75t-150 198t-47.5 282zM299 524q0 -181 74 -287 t209 -106q148 0 223.5 105t75.5 278q0 187 -71 295.5t-220 108.5q-140 0 -215.5 -106t-75.5 -288z" />
<glyph unicode="r" horiz-adv-x="784" d="M158 23v1009q0 21 20 21h76q16 0 22 -17l66 -155q46 91 129 139.5t180 48.5q28 0 78 -4q16 -3 16 -18v-5q-2 -47 -10 -141h-2q-3 -21 -24 -18q-35 6 -72 6q-142 0 -215.5 -95.5t-73.5 -244.5v-529q0 -18 -20 -18h-150q-20 0 -20 21z" />
<glyph unicode="s" horiz-adv-x="1067" d="M84 304q0 7 4 12q5 6 14 6h148q17 0 20 -19q36 -178 273 -178q118 0 180.5 41.5t62.5 120.5q0 76 -61.5 111.5t-192.5 56.5q-94 11 -165 30.5t-131 54.5t-91.5 91.5t-31.5 132.5q0 100 57.5 173.5t150.5 109.5t209 36q186 0 296 -84.5t126 -220.5q3 -20 -18 -20l-139 -2 q-17 0 -23 18q-38 156 -237 156q-116 0 -176 -41.5t-60 -110.5q0 -76 49 -102.5t213 -54.5q219 -32 316.5 -104t97.5 -222q0 -154 -117.5 -239t-314.5 -85q-120 0 -217.5 34.5t-163.5 110.5q-78 89 -78 188z" />
<glyph unicode="t" horiz-adv-x="757" d="M37 915v117q0 19 20 19h162v202q0 17 14 25l154 74q6 3 11 3q4 1 7 -1q7 -4 7 -17v-286h262q18 0 18 -21v-117q0 -18 -20 -18h-262v-584q0 -164 139 -164q61 0 131 13q19 3 22 -17l13 -112q3 -20 -17 -23q-93 -26 -182 -26q-159 0 -229 87t-70 253v573h-160q-20 0 -20 20 z" />
<glyph unicode="u" horiz-adv-x="1181" d="M143 354l4 680q0 19 21 19h149q21 0 21 -21v-645q0 -128 49.5 -188t157.5 -60q77 0 134 32t90 90t49 132t16 166v471q0 21 20 21h147q21 0 21 -21v-1010q0 -20 -21 -20h-83q-18 0 -23 16q-9 24 -27.5 73t-27.5 73q-58 -93 -147 -142t-193 -49q-177 0 -267 98.5t-90 284.5 z" />
<glyph unicode="v" horiz-adv-x="1046" d="M24 1046q4 8 15 7h172q18 0 25 -17l294 -807l291 807q7 17 25 17h162q10 0 14 -7q3 -4 3 -10q0 -4 -1 -8l-391 -1012q-5 -16 -23 -16h-168q-17 0 -22 16l-395 1012q-3 5 -3 10q0 4 2 8z" />
<glyph unicode="w" horiz-adv-x="1538" d="M47 1030q-1 5 -1 9q0 14 20 14h155q20 0 23 -19l192 -788l242 782q6 16 24 16h142q18 0 24 -16l240 -780l190 786q3 19 23 19h152q20 0 20 -14q0 -4 -2 -9l-274 -1012q-3 -18 -23 -18h-158q-18 0 -24 16l-244 789l-242 -789q-6 -16 -24 -16h-156q-19 0 -22 18z" />
<glyph unicode="x" horiz-adv-x="1032" d="M41 25l362 522l-342 485q-7 10 -3 17.5t16 7.5h176q14 0 24 -13l248 -362l252 362q10 13 25 13h162q12 0 15.5 -7.5t-3.5 -17.5l-338 -483l358 -524q5 -8 5 -14q0 -11 -19 -11h-176q-16 0 -25 12l-266 396l-266 -396q-9 -12 -25 -12h-166q-19 0 -19 11q0 6 5 14z" />
<glyph unicode="y" horiz-adv-x="1062" d="M24 1046q5 7 17 7h172q17 0 23 -17q240 -619 311 -805q129 354 291 805q7 17 24 17h162q10 0 14 -7q3 -4 3 -10q0 -4 -1 -8q-14 -36 -426 -1094q-23 -60 -55 -133q-47 -106 -114.5 -159.5t-176.5 -53.5q-65 0 -155 25q-20 3 -17 22t7.5 57.5t7.5 57.5q3 21 24 14 q43 -14 103 -14q57 0 92.5 30t62.5 95q21 49 56 137q-77 187 -221.5 531.5t-202.5 484.5q-3 5 -3 10q0 4 2 8z" />
<glyph unicode="z" horiz-adv-x="997" d="M84 20v125q0 15 8 23l594 725h-573q-19 0 -19 20v117q0 19 21 19h784q19 0 19 -21v-125q0 -13 -9 -22l-592 -725h596q19 0 19 -21v-117q0 -18 -21 -18h-807q-20 0 -20 20z" />
<glyph unicode="{" horiz-adv-x="679" d="M82 578v118q0 20 20 23q90 9 128 56.5t38 146.5v282q0 172 73 253t230 81h70q21 0 21 -20v-107q0 -20 -21 -20h-45q-86 0 -124 -36t-38 -114v-344q0 -103 -38.5 -167.5t-125.5 -88.5v-2q164 -43 164 -262v-322q0 -88 35.5 -127t126.5 -39h45q21 0 21 -20v-111 q0 -20 -21 -20h-31q-169 0 -256.5 68.5t-87.5 222.5l2 323q0 96 -39 147.5t-127 57.5q-20 0 -20 21z" />
<glyph unicode="|" horiz-adv-x="514" d="M172 -242v1762q0 20 21 20h131q18 0 18 -20v-1764q0 -18 -20 -18h-132q-18 0 -18 20z" />
<glyph unicode="}" horiz-adv-x="679" d="M12 -127q0 18 21 18h45q92 0 127 39t35 127v322q0 217 166 262v2q-166 45 -166 260v322q0 90 -33.5 129t-128.5 39h-45q-21 0 -21 20v107q0 20 21 20h71q160 0 233 -80.5t73 -253.5v-282q0 -98 38.5 -146t126.5 -57q21 -3 21 -23q0 -19 -1 -58t-1 -60t-21 -21 q-163 -11 -163 -205v-284q0 -169 -73.5 -250.5t-232.5 -81.5h-69q-21 0 -21 20z" />
<glyph unicode="~" horiz-adv-x="1273" d="M117 578q71 251 309 251q59 0 120.5 -25t105 -54.5t95.5 -54.5t93 -25q117 0 164 121q6 19 26 12q18 -9 111 -49q15 -9 12 -27q-72 -254 -305 -254q-59 0 -121 25.5t-105.5 56.5t-96 56.5t-93.5 25.5q-119 0 -164 -125q-6 -18 -26 -12q-61 30 -113 51q-15 9 -12 27z" />
<glyph unicode="&#xa1;" horiz-adv-x="573" d="M166 831v193q0 20 20 20h170q21 0 21 -20v-193q0 -20 -21 -20h-170q-20 0 -20 20zM168 -387q3 83 17.5 494t17.5 479q0 20 20 20h105q20 0 20 -20q3 -82 11 -280t12 -357t4 -336q0 -9 -6 -15t-15 -6h-166q-20 0 -20 21z" />
<glyph unicode="&#xa2;" d="M147 715q0 149 45.5 266t142 193.5t234.5 93.5v162q0 20 21 20h67q21 0 21 -20v-164q159 -12 259 -111t124 -250q3 -22 -21 -22q-25 0 -75 1t-74 1q-18 0 -21 18q-14 78 -62.5 132t-129.5 67v-772q83 11 133 66.5t66 138.5q3 18 20 18h150q23 0 20 -23 q-22 -154 -122 -251.5t-267 -114.5v-154q0 -20 -21 -20h-67q-21 0 -21 20v158q-142 15 -238.5 91.5t-140 191.5t-43.5 264zM342 717q0 -339 227 -383v766q-64 -10 -109.5 -45.5t-70.5 -90t-36 -115t-11 -132.5z" />
<glyph unicode="&#xa3;" horiz-adv-x="1196" d="M113 672v116q0 19 20 19h127q-12 136 -12 213q0 207 118.5 319.5t301.5 112.5q94 0 169.5 -28.5t124 -78t77 -111.5t38.5 -134q3 -21 -20 -21h-139q-17 0 -23 19q-33 188 -223 188q-123 0 -179.5 -70t-56.5 -190q0 -99 10 -219h373q19 0 19 -21v-116q0 -19 -21 -19h-362 q4 -90 4 -153v-32v-39t-1 -39t-4 -43t-7 -39.5t-11 -41t-16.5 -34.5t-22.5 -32.5t-30 -23.5l702 -2q21 0 21 -20q0 -23 -1.5 -67t-1.5 -65q0 -20 -20 -20h-915q-21 0 -21 20t1 62.5t1 62.5q0 17 14 25q76 38 100.5 115t24.5 211q0 41 -4 155h-135q-20 0 -20 21z" />
<glyph unicode="&#xa4;" horiz-adv-x="1228" d="M59 510q10 71 11 90q3 18 20 18h113q-2 29 -2 87q0 61 2 90h-123q-21 0 -21 22q10 71 11 90q3 19 20 19h127q37 233 182.5 378.5t372.5 145.5q147 0 245.5 -60t160.5 -178q9 -15 -9 -26q-16 -13 -48 -35t-44 -31q-16 -13 -28 6q-52 81 -119 117.5t-162 36.5 q-147 0 -238 -95t-116 -259h487q11 0 16.5 -6.5t2.5 -16.5t-29 -92q-6 -16 -25 -16h-469q0 -15 -1 -44t-1 -44q0 -16 1 -45.5t1 -43.5h422q10 0 14.5 -6t0.5 -16q-5 -16 -14.5 -46.5t-14.5 -45.5q-7 -17 -25 -17h-370q27 -160 117 -254t235 -94q107 0 177 41.5t114 124.5 q9 18 28 8l95 -53q17 -10 8 -29q-116 -260 -424 -260q-230 0 -370 140.5t-175 375.5h-135q-21 0 -21 23z" />
<glyph unicode="&#xa5;" horiz-adv-x="1175" d="M31 1427q4 7 16 7h168q14 0 23 -15q46 -82 168 -303t190 -342q223 402 358 645q9 15 25 15h156q12 0 16 -7t-2 -18q-22 -39 -168 -294.5t-223 -389.5h190q21 0 21 -20v-84q0 -21 -21 -21h-262v-154h262q19 0 19 -20v-84q0 -20 -21 -20h-262v-302q0 -20 -20 -20h-150 q-20 0 -20 20v302h-273q-18 0 -18 20v84q0 20 20 20h273v154h-273q-18 0 -18 21v84q0 20 20 20h201q-52 91 -185.5 324t-207.5 360q-6 11 -2 18z" />
<glyph unicode="&#xa6;" horiz-adv-x="528" d="M170 -158v645q0 21 20 21h146q20 0 20 -21v-645q0 -20 -20 -20h-146q-20 0 -20 20zM170 879v626q0 21 20 21h146q20 0 20 -21v-628q0 -19 -20 -19h-146q-20 0 -20 21z" />
<glyph unicode="&#xa7;" horiz-adv-x="1107" d="M127 -29q-1 9 4 15t14 6h138q19 0 22 -21q8 -90 64 -146t155 -56q85 0 145 49t60 123q0 101 -104 163q-36 25 -97.5 65t-98 65t-85.5 62t-78.5 69t-57.5 72.5t-41 86t-13 97.5q0 167 176 272q-113 96 -113 237q0 96 56.5 171.5t145.5 114t193 38.5q87 0 158.5 -28 t118 -76.5t74 -110t34.5 -131.5q1 -9 -4 -15t-14 -6h-137q-21 0 -21 21q-6 87 -61.5 139.5t-155.5 52.5q-85 0 -145 -48t-60 -122q0 -53 24 -91.5t79 -71.5q35 -24 88 -59t86.5 -57t78 -54.5t72 -57t58 -58.5t47.5 -66t28 -71.5t11 -82.5q0 -180 -174 -283 q110 -101 110 -235q0 -148 -113 -238t-272 -90q-174 0 -279.5 94.5t-115.5 261.5zM322 639q0 -42 19 -83.5t44.5 -73t72.5 -69t82 -61.5t93 -62q9 -5 13.5 -8t11 -7.5t12.5 -8.5q61 24 99 69t38 103q0 136 -150 217q-47 34 -204 152q-59 -26 -95 -70t-36 -98z" />
<glyph unicode="&#xa8;" horiz-adv-x="702" d="M63 1284v162q0 18 21 18h147q21 0 21 -20v-160q0 -20 -21 -20h-147q-21 0 -21 20zM449 1284v162q0 18 20 18h149q21 0 21 -20v-160q0 -20 -21 -20h-149q-20 0 -20 20z" />
<glyph unicode="&#xa9;" horiz-adv-x="1671" d="M109 729q0 213 96.5 383t262.5 264t368 94q156 0 290.5 -55t230.5 -152t151 -235.5t55 -298.5q0 -214 -96 -384.5t-262 -264.5t-369 -94q-156 0 -291 55t-231 152.5t-150.5 236t-54.5 299.5zM252 729q0 -268 164.5 -441t419.5 -173q166 0 299 78.5t208.5 219t75.5 316.5 t-75 316t-208 218t-300 78q-255 0 -419.5 -172.5t-164.5 -439.5zM465 725q0 182 102 298t281 116q136 0 227.5 -74.5t108.5 -198.5q3 -22 -21 -22l-121 2q-16 0 -22 18q-14 65 -58.5 101t-117.5 36q-110 0 -162.5 -77t-52.5 -197q0 -124 52.5 -200t162.5 -76q74 0 121 38.5 t61 106.5q3 18 21 18h120q24 0 21 -22q-22 -129 -112.5 -204t-233.5 -75q-181 0 -279 113.5t-98 298.5z" />
<glyph unicode="&#xaa;" horiz-adv-x="626" d="M74 649q0 44 14 77.5t42 54t59.5 33.5t77 19t82.5 9t87 5q20 1 29 1v35q0 121 -125 121q-116 0 -135 -86q-4 -11 -12 -9q-24 0 -78 4q-14 0 -11 13q13 80 75 120.5t163 40.5q227 0 227 -227v-360q0 -13 -10 -13h-55q-8 0 -12 9l-21 75q-29 -45 -80.5 -72.5t-116.5 -27.5 q-90 0 -145 48t-55 130zM180 651q0 -43 29 -68.5t80 -25.5q83 0 129.5 47.5t46.5 120.5v43q-56 -2 -89 -4t-70 -6.5t-57 -12t-37.5 -20t-24.5 -31t-7 -43.5z" />
<glyph unicode="&#xab;" horiz-adv-x="1095" d="M109 547q-11 14 0 28l278 424q13 16 29 7q64 -43 112 -74q17 -13 4 -29q-170 -258 -227 -342q38 -58 112.5 -171.5t112.5 -170.5q13 -16 -4 -26q-19 -13 -55.5 -38.5t-54.5 -37.5q-17 -10 -27 6zM557 547q-11 14 0 28l279 424q13 16 28 7q18 -13 55 -37t56 -37 q16 -13 6 -29q-114 -173 -225 -342q38 -57 112.5 -171t112.5 -171q13 -16 -4 -29q-16 -11 -113 -73q-16 -10 -26 6z" />
<glyph unicode="&#xac;" horiz-adv-x="1263" d="M129 776q0 9 6 15t15 6h919q18 0 18 -21v-483q0 -19 -20 -19h-135q-9 0 -15 6t-6 15v332h-761q-19 0 -19 20z" />
<glyph unicode="&#xad;" horiz-adv-x="858" d="M117 543v139q0 20 20 20h582q20 0 20 -20v-139q0 -21 -20 -21h-582q-20 0 -20 21z" />
<glyph unicode="&#xae;" horiz-adv-x="1374" d="M92 889q0 173 78.5 310.5t213.5 213.5t300 76q257 0 424.5 -168.5t167.5 -431.5q0 -130 -45.5 -242t-124.5 -190.5t-188 -123t-234 -44.5q-257 0 -424.5 168.5t-167.5 431.5zM219 889q0 -216 129.5 -351t335.5 -135q205 0 336 135.5t131 350.5q0 216 -131 352.5 t-336 136.5q-204 0 -334.5 -136.5t-130.5 -352.5zM469 1176q0 20 20 20h205q116 0 173 -51.5t57 -138.5q0 -126 -103 -170q36 -78 103 -215q6 -11 1.5 -18t-16.5 -7h-90q-16 0 -22 14q-14 28 -48.5 107.5t-41.5 93.5h-117v-193q0 -20 -21 -20h-77q-21 0 -21 20zM590 920h108 q50 0 77.5 25t27.5 65q0 82 -111 82h-102v-172z" />
<glyph unicode="&#xaf;" horiz-adv-x="702" d="M72 1292v115q0 20 20 20h520q21 0 21 -20v-117q0 -18 -21 -18h-520q-20 0 -20 20z" />
<glyph unicode="&#xb0;" horiz-adv-x="862" d="M98 1122q0 136 95 230t237 94q139 0 235.5 -94.5t96.5 -229.5q0 -138 -97 -232.5t-235 -94.5t-235 94.5t-97 232.5zM252 1122q0 -77 50.5 -130.5t127.5 -53.5q76 0 127 53.5t51 130.5t-51 129t-127 52q-77 0 -127.5 -52t-50.5 -129z" />
<glyph unicode="&#xb1;" horiz-adv-x="2768" d="M133 598v125q0 20 21 20h413v437q0 20 21 20h131q20 0 20 -20v-439h412q20 0 20 -20v-125q0 -21 -20 -21h-414v-452q0 -21 -20 -21h-131q-9 0 -15 6t-6 15v455h-411q-21 0 -21 20zM1018 -7q-4 7 2 17l711 1442q8 14 24 14h131q12 0 16.5 -7t-1.5 -17l-707 -1442 q-8 -14 -25 -14h-135q-12 0 -16 7zM1688 600v129q0 21 20 21h920q18 0 18 -21v-131q0 -18 -20 -18h-920q-18 0 -18 20z" />
<glyph unicode="&#xb2;" horiz-adv-x="634" d="M55 1282q16 95 80.5 155t177.5 60q112 0 178 -61t66 -164q0 -139 -156 -283q-11 -9 -98.5 -104.5t-99.5 -104.5h340q20 0 20 -20v-55q0 -21 -20 -21h-465q-9 0 -15 6t-6 15v53q0 9 11 24q17 18 122 132t123 130q67 63 100 116t33 108q0 62 -36 97.5t-99 35.5 q-124 0 -149 -123q-6 -18 -23 -18h-63q-24 0 -21 22z" />
<glyph unicode="&#xb3;" horiz-adv-x="595" d="M39 903q-1 9 4 15t14 6l64 2q17 0 20 -19q18 -129 156 -129q70 0 111 36.5t41 103.5q0 70 -41 104.5t-113 34.5h-45q-21 0 -21 20v49q0 9 6 15t15 6h49q64 0 99.5 33.5t35.5 95.5q0 55 -36.5 88t-98.5 33q-129 0 -152 -111q-6 -18 -22 -18h-64q-21 0 -18 20 q9 88 78 145.5t178 57.5q111 0 176.5 -58.5t65.5 -150.5q0 -59 -29.5 -105.5t-85.5 -70.5q64 -21 97.5 -71t33.5 -117q0 -108 -69.5 -172t-188.5 -64q-121 0 -186.5 62.5t-73.5 158.5z" />
<glyph unicode="&#xb4;" horiz-adv-x="649" d="M125 1235q-13 16 0 29l262 252q15 14 29 0l86 -84q16 -16 -2 -31l-291 -217q-14 -12 -29 0z" />
<glyph unicode="&#xb6;" horiz-adv-x="1325" d="M84 1042q0 144 84.5 252t232.5 138q8 2 25 2l643 -2q9 0 15 -6t6 -15l-3 -1266q0 -20 -20 -20h-133q-21 0 -21 20v1149h-233v-1147q0 -20 -21 -20h-133q-20 0 -20 20v486q-199 6 -310.5 122t-111.5 287z" />
<glyph unicode="&#xb7;" horiz-adv-x="534" d="M141 578v215q0 18 21 18h192q21 0 21 -20v-213q0 -21 -21 -21h-192q-9 0 -15 6t-6 15z" />
<glyph unicode="&#xb8;" horiz-adv-x="579" d="M104 -369l140 260q9 15 24 15h109q10 0 14.5 -7t-0.5 -18l-127 -323q-8 -19 -26 -13l-125 60q-19 6 -9 26z" />
<glyph unicode="&#xb9;" horiz-adv-x="608" d="M205 1311v61q0 16 12 25q28 20 85.5 58t86.5 58q12 9 27 9h55q18 0 18 -21v-723q0 -20 -20 -20l-61 -2q-21 0 -21 20v627q-104 -71 -158 -105q-11 -7 -17.5 -3t-6.5 16z" />
<glyph unicode="&#xba;" horiz-adv-x="782" d="M96 750q0 151 79.5 243t219.5 92q143 0 220 -91t77 -242q0 -152 -78 -244t-221 -92q-144 0 -220.5 91.5t-76.5 242.5zM215 752q0 -105 42 -171.5t136 -66.5q95 0 137.5 67t42.5 171q0 49 -9 89t-29 73.5t-56 52t-86 18.5q-93 0 -135.5 -66t-42.5 -167z" />
<glyph unicode="&#xbb;" horiz-adv-x="1095" d="M111 219l225 342l-225 344q-10 16 6 29l110 72q15 12 29 -5l279 -423q12 -14 0 -29l-279 -426q-13 -17 -29 -4l-112 74q-17 10 -4 26zM559 905q-13 16 4 29l113 74q16 10 26 -7l281 -423q12 -14 0 -29l-278 -426q-13 -17 -29 -4l-111 74q-16 13 -4 28l225 340z" />
<glyph unicode="&#xbc;" horiz-adv-x="1884" d="M446 1395v55q0 15 13 25q27 19 80 54.5t79 53.5q11 8 27 8h49q21 0 21 -20v-678q0 -9 -6 -15t-15 -6l-57 -2q-19 0 -19 21v588q-24 -16 -73 -48.5t-74 -48.5q-11 -7 -18 -3t-7 16zM539 -11q-4 7 2 17q81 171 227 477t266.5 559t227.5 478q8 14 24 14h88q12 0 16.5 -7 t-1.5 -18q-140 -295 -399 -838t-322 -675q-8 -14 -25 -14h-88q-12 0 -16 7zM1102 233q0 14 8 27q60 81 169 234t157 219q9 12 24 12h62q20 0 20 -20v-449h74q18 0 18 -20v-39q0 -21 -20 -21h-74v-158q0 -20 -20 -20h-58q-20 0 -20 20v160h-318q-20 0 -20 21zM1206 256h236 v330q-72 -102 -236 -330z" />
<glyph unicode="&#xbd;" horiz-adv-x="2123" d="M465 1360v70q0 15 12 24l189 129q11 8 26 8h62q20 0 20 -20v-793q0 -20 -20 -20l-70 -2q-20 0 -20 20v684q-163 -106 -175 -114q-24 -14 -24 14zM547 -11q-4 7 2 17q435 906 721 1514q8 14 24 14h90q12 0 16.5 -7t-1.5 -18q-517 -1081 -721 -1513q-8 -14 -25 -14h-90 q-12 0 -16 7zM1214 584q16 92 79 150.5t175 58.5q109 0 173.5 -60t64.5 -160q0 -72 -35 -136.5t-108 -133.5q-3 -3 -8.5 -8t-8.5 -8q-2 -2 -7.5 -8t-8.5 -9q-13 -13 -52.5 -56t-74.5 -80.5t-43 -43.5h334q18 0 18 -20v-56q0 -18 -20 -18l-455 -2q-20 0 -20 20v54q0 11 10 24 q17 18 74 79.5t105 113t62 63.5q129 120 129 221q0 60 -35 94.5t-96 34.5q-122 0 -147 -118q-6 -19 -23 -19h-61q-24 0 -21 23z" />
<glyph unicode="&#xbe;" horiz-adv-x="1884" d="M215 979q-3 20 18 20l70 2q18 0 21 -18q19 -137 165 -137q73 0 116.5 39t43.5 108q0 146 -164 146h-47q-20 0 -20 20v58q0 20 20 20h54q67 0 104 34.5t37 100.5q0 57 -38.5 93t-102.5 36q-133 0 -160 -119q-6 -18 -23 -18h-69q-21 0 -21 20q9 94 82.5 154.5t190.5 60.5 q116 0 184.5 -62t68.5 -159q0 -135 -118 -184q67 -24 102 -77.5t35 -123.5q0 -115 -72.5 -181.5t-199.5 -66.5q-128 0 -198.5 66.5t-78.5 167.5zM498 -11q-4 7 2 17l721 1514q8 14 24 14h88q12 0 16.5 -7t-1.5 -18l-719 -1513q-8 -14 -25 -14h-90q-12 0 -16 7zM1014 219v45 q0 16 8 27l371 516q9 12 24 12h78q18 0 18 -20v-510h82q21 0 21 -21v-51q0 -20 -21 -20h-84v-183q0 -20 -20 -20h-74q-20 0 -20 20v185h-363q-20 0 -20 20zM1135 289h264v373z" />
<glyph unicode="&#xbf;" horiz-adv-x="1024" d="M59 -53q-1 112 44.5 188t132.5 152q92 82 117 112q61 72 70 180q1 11 1 23q0 21 20 21h150q20 0 20 -21q-1 -55 -8.5 -99.5t-24.5 -83t-32 -64.5t-47 -59.5t-52.5 -51.5t-64.5 -56q-61 -51 -92 -102.5t-31 -126.5q0 -102 62 -162.5t174 -60.5q123 0 191.5 57t88.5 176 q3 19 21 19h151q9 0 14.5 -6t4.5 -15q-16 -175 -141.5 -289t-331.5 -114q-195 0 -316 107.5t-121 275.5zM410 825v199q0 20 20 20h178q21 0 21 -20v-201q0 -18 -21 -18h-178q-20 0 -20 20z" />
<glyph unicode="&#xc0;" horiz-adv-x="1316" d="M23 25l534 1417q6 16 23 16h174q16 0 22 -16l535 -1417q3 -11 -2 -18t-15 -7h-170q-18 0 -24 16l-127 344h-619l-127 -344q-6 -16 -24 -16h-164q-10 0 -14.5 7t-1.5 18zM279 1872q3 8 16 8h207q11 0 24 -10l219 -246q9 -9 5.5 -17t-15.5 -8h-151q-17 0 -25 11l-272 245 q-11 9 -8 17zM416 539h495l-249 678z" />
<glyph unicode="&#xc1;" horiz-adv-x="1316" d="M23 25l534 1417q6 16 23 16h174q16 0 22 -16l535 -1417q3 -11 -2 -18t-15 -7h-170q-18 0 -24 16l-127 344h-619l-127 -344q-6 -16 -24 -16h-164q-10 0 -14.5 7t-1.5 18zM416 539h495l-249 678zM582 1663q-13 16 0 29l262 252q14 14 28 0l86 -84q16 -16 -2 -31l-290 -217 q-14 -12 -29 0z" />
<glyph unicode="&#xc2;" horiz-adv-x="1316" d="M23 25l534 1417q6 16 23 16h174q16 0 22 -16l535 -1417q3 -11 -2 -18t-15 -7h-170q-18 0 -24 16l-127 344h-619l-127 -344q-6 -16 -24 -16h-164q-10 0 -14.5 7t-1.5 18zM334.5 1607q-3.5 8 5.5 17l233 272q13 13 25 13h121q11 0 24 -13l234 -272q8 -9 4.5 -17t-16.5 -8 h-127q-14 0 -27 13l-152 194l-151 -194q-13 -13 -27 -13h-131q-12 0 -15.5 8zM416 539h495l-249 678z" />
<glyph unicode="&#xc3;" horiz-adv-x="1316" d="M23 25l534 1417q6 16 23 16h174q16 0 22 -16l535 -1417q3 -11 -2 -18t-15 -7h-170q-18 0 -24 16l-127 344h-619l-127 -344q-6 -16 -24 -16h-164q-10 0 -14.5 7t-1.5 18zM326 1681q23 77 76.5 118.5t129.5 41.5q49 0 97.5 -23.5t91.5 -47t78 -23.5q65 0 94 59q10 20 27 11 l73 -31q18 -6 15 -25q-23 -76 -76 -117.5t-127 -41.5q-50 0 -99.5 23.5t-92.5 47t-76 23.5q-68 0 -97 -60q-9 -18 -26 -10l-76 29q-18 9 -12 26zM416 539h495l-249 678z" />
<glyph unicode="&#xc4;" horiz-adv-x="1316" d="M23 25l534 1417q6 16 23 16h174q16 0 22 -16l535 -1417q3 -11 -2 -18t-15 -7h-170q-18 0 -24 16l-127 344h-619l-127 -344q-6 -16 -24 -16h-164q-10 0 -14.5 7t-1.5 18zM371 1620v162q0 18 20 18h148q20 0 20 -20v-160q0 -21 -20 -21h-148q-20 0 -20 21zM416 539h495 l-249 678zM756 1620v162q0 18 20 18h150q20 0 20 -20v-160q0 -21 -20 -21h-150q-20 0 -20 21z" />
<glyph unicode="&#xc5;" horiz-adv-x="1316" d="M23 25l520 1378q-51 27 -81 76.5t-30 115.5q0 101 64 161.5t161 60.5q96 0 161 -61.5t65 -160.5q0 -121 -97 -184l525 -1386q3 -11 -2 -18t-15 -7h-170q-18 0 -24 16l-127 344h-619l-127 -344q-6 -16 -24 -16h-164q-10 0 -14.5 7t-1.5 18zM416 539h495l-249 678z M549 1595q0 -52 29 -83t79 -31t80.5 31t30.5 83t-30.5 83.5t-80.5 31.5q-49 0 -78.5 -31t-29.5 -84z" />
<glyph unicode="&#xc6;" horiz-adv-x="2000" d="M14 7.5q-4 7.5 0 17.5l742 1413q8 14 24 14h1106q19 0 19 -20v-138q0 -20 -21 -20h-678v-428h604q21 0 21 -21v-139q0 -20 -21 -20h-606v-488h688q19 0 19 -20v-138q0 -20 -21 -20h-860q-20 0 -20 20v410h-566l-213 -416q-8 -14 -24 -14h-178q-11 0 -15 7.5zM539 602h475 v670h-140z" />
<glyph unicode="&#xc7;" horiz-adv-x="1366" d="M102 727q0 127 23 239.5t72.5 208.5t121 165.5t174 109t226.5 39.5q229 0 373.5 -131.5t181.5 -343.5q3 -23 -17 -23h-163q-17 0 -23 19q-26 141 -113.5 220t-236.5 79q-90 0 -161.5 -32.5t-117.5 -86.5t-76 -130t-42.5 -158t-12.5 -175q0 -92 12.5 -174t43 -157.5 t76.5 -129.5t117 -86.5t161 -32.5q156 0 244.5 81.5t111.5 224.5q3 18 21 18h166q23 0 20 -22q-28 -215 -178.5 -347.5t-386.5 -132.5q-127 0 -230.5 38.5t-174.5 107t-119.5 164.5t-70.5 208t-22 240zM498 -449l139 261q8 14 25 14h108q10 0 14.5 -7t-0.5 -18l-127 -323 q-8 -19 -26 -13l-125 60q-18 6 -8 26z" />
<glyph unicode="&#xc8;" horiz-adv-x="1239" d="M176 20l4 1412q0 20 21 20h932q18 0 18 -20v-138q0 -20 -21 -20h-749v-430h678q20 0 20 -21v-137q0 -20 -20 -20h-680v-488h760q18 0 18 -20v-138q0 -20 -20 -20h-942q-19 0 -19 20zM301 1872q3 8 16 8h207q12 0 25 -10l219 -246q9 -9 5.5 -17t-15.5 -8h-152 q-16 0 -24 11l-273 245q-11 9 -8 17z" />
<glyph unicode="&#xc9;" horiz-adv-x="1239" d="M176 20l4 1412q0 20 21 20h932q18 0 18 -20v-138q0 -20 -21 -20h-749v-430h678q20 0 20 -21v-137q0 -20 -20 -20h-680v-488h760q18 0 18 -20v-138q0 -20 -20 -20h-942q-19 0 -19 20zM420 1663q-13 16 0 29l262 252q14 14 29 0l86 -84q16 -16 -2 -31l-291 -217 q-14 -12 -29 0z" />
<glyph unicode="&#xca;" horiz-adv-x="1239" d="M176 20l4 1412q0 20 21 20h932q18 0 18 -20v-138q0 -20 -21 -20h-749v-430h678q20 0 20 -21v-137q0 -20 -20 -20h-680v-488h760q18 0 18 -20v-138q0 -20 -20 -20h-942q-19 0 -19 20zM295.5 1607q-3.5 8 5.5 17l234 272q13 13 24 13h121q12 0 25 -13l233 -272 q8 -9 4.5 -17t-16.5 -8h-127q-14 0 -27 13l-151 194l-152 -194q-13 -13 -27 -13h-131q-12 0 -15.5 8z" />
<glyph unicode="&#xcb;" horiz-adv-x="1239" d="M176 20l4 1412q0 20 21 20h932q18 0 18 -20v-138q0 -20 -21 -20h-749v-430h678q20 0 20 -21v-137q0 -20 -20 -20h-680v-488h760q18 0 18 -20v-138q0 -20 -20 -20h-942q-19 0 -19 20zM332 1620v162q0 18 20 18h148q20 0 20 -20v-160q0 -21 -20 -21h-148q-20 0 -20 21z M717 1620v162q0 18 20 18h150q20 0 20 -20v-160q0 -21 -20 -21h-150q-20 0 -20 21z" />
<glyph unicode="&#xcc;" horiz-adv-x="530" d="M-114 1872q3 8 16 8h207q11 0 24 -10l219 -246q9 -9 5.5 -17t-15.5 -8h-152q-16 0 -24 11l-272 245q-11 9 -8 17zM176 20v1416q0 20 21 20h159q21 0 21 -20v-1416q0 -20 -21 -20h-159q-21 0 -21 20z" />
<glyph unicode="&#xcd;" horiz-adv-x="530" d="M176 20v1416q0 20 21 20h159q21 0 21 -20v-1416q0 -20 -21 -20h-159q-21 0 -21 20zM188 1663q-13 16 0 29l263 252q14 14 28 0l86 -84q16 -16 -2 -31l-291 -217q-14 -11 -28 0z" />
<glyph unicode="&#xce;" horiz-adv-x="530" d="M-58.5 1607q-3.5 8 5.5 17l233 272q13 13 25 13h121q11 0 24 -13l234 -272q8 -9 4 -17t-17 -8h-127q-13 0 -26 13l-152 194l-151 -194q-13 -13 -27 -13h-131q-12 0 -15.5 8zM176 20v1416q0 20 21 20h159q21 0 21 -20v-1416q0 -20 -21 -20h-159q-21 0 -21 20z" />
<glyph unicode="&#xcf;" horiz-adv-x="530" d="M-23 1620v162q0 18 21 18h147q21 0 21 -20v-160q0 -21 -21 -21h-147q-9 0 -15 6t-6 15zM176 20v1416q0 20 21 20h159q21 0 21 -20v-1416q0 -20 -21 -20h-159q-21 0 -21 20zM362 1620v162q0 18 21 18h149q21 0 21 -20v-160q0 -21 -21 -21h-149q-9 0 -15 6t-6 15z" />
<glyph unicode="&#xd0;" horiz-adv-x="1449" d="M41 700v113q0 21 20 21h136v604q0 18 20 18h500q134 0 240.5 -37.5t177.5 -102.5t118 -157.5t67.5 -197.5t20.5 -228q0 -124 -22 -231t-71 -200.5t-123 -159.5t-184 -104t-247 -38h-475q-20 0 -20 20v656l-138 4q-20 0 -20 20zM395 180l252 -2q115 0 201.5 28t140.5 76 t87 120t46 151.5t13 179.5q0 547 -418 547h-320v-446h310q20 0 20 -21v-113q0 -20 -20 -20h-312v-500z" />
<glyph unicode="&#xd1;" horiz-adv-x="1468" d="M176 20v1416q0 20 21 20h168q16 0 24 -14l713 -1108v1102q0 18 20 18h154q20 0 20 -20v-1416q0 -20 -20 -20h-164q-17 0 -25 14l-714 1110v-1104q0 -18 -21 -18h-157q-19 0 -19 20zM401 1681q23 77 77 118.5t130 41.5q49 0 97 -23.5t91 -47t78 -23.5q66 0 95 59 q10 19 26 11l74 -31q17 -6 14 -25q-23 -76 -75.5 -117.5t-126.5 -41.5q-50 0 -100 23.5t-93 47t-76 23.5q-67 0 -96 -60q-9 -19 -27 -10l-75 29q-19 9 -13 26z" />
<glyph unicode="&#xd2;" horiz-adv-x="1460" d="M104 727q0 127 23.5 239.5t74 209t123.5 166t178 108.5t232 39q159 0 281 -59t196.5 -164t112 -240.5t37.5 -296.5q0 -160 -36.5 -294.5t-110 -240t-196.5 -165.5t-284 -60q-129 0 -234.5 39t-178.5 108t-122.5 165t-72.5 207.5t-23 238.5zM311 727q0 -93 12 -173.5 t42.5 -157t77.5 -130.5t121.5 -86.5t170.5 -32.5q95 0 168.5 32.5t120.5 86.5t77 130t42 157t12 174t-12 173.5t-42 157.5t-77 131t-120.5 87t-168.5 33q-96 0 -171 -33t-122 -87t-77 -131t-42 -157.5t-12 -173.5zM393.5 1905q2.5 8 16.5 8h206q12 0 25 -10l219 -246 q9 -9 5.5 -17t-15.5 -8h-152q-16 0 -24 10l-273 246q-10 9 -7.5 17z" />
<glyph unicode="&#xd3;" horiz-adv-x="1460" d="M104 727q0 127 23.5 239.5t74 209t123.5 166t178 108.5t232 39q159 0 281 -59t196.5 -164t112 -240.5t37.5 -296.5q0 -160 -36.5 -294.5t-110 -240t-196.5 -165.5t-284 -60q-129 0 -234.5 39t-178.5 108t-122.5 165t-72.5 207.5t-23 238.5zM311 727q0 -93 12 -173.5 t42.5 -157t77.5 -130.5t121.5 -86.5t170.5 -32.5q95 0 168.5 32.5t120.5 86.5t77 130t42 157t12 174t-12 173.5t-42 157.5t-77 131t-120.5 87t-168.5 33q-96 0 -171 -33t-122 -87t-77 -131t-42 -157.5t-12 -173.5zM594 1696q-12 16 0 28l262 252q14 14 29 0l86 -84 q15 -15 -2 -30l-291 -217q-14 -12 -29 0z" />
<glyph unicode="&#xd4;" horiz-adv-x="1460" d="M104 727q0 127 23.5 239.5t74 209t123.5 166t178 108.5t232 39q159 0 281 -59t196.5 -164t112 -240.5t37.5 -296.5q0 -160 -36.5 -294.5t-110 -240t-196.5 -165.5t-284 -60q-129 0 -234.5 39t-178.5 108t-122.5 165t-72.5 207.5t-23 238.5zM311 727q0 -93 12 -173.5 t42.5 -157t77.5 -130.5t121.5 -86.5t170.5 -32.5q95 0 168.5 32.5t120.5 86.5t77 130t42 157t12 174t-12 173.5t-42 157.5t-77 131t-120.5 87t-168.5 33q-96 0 -171 -33t-122 -87t-77 -131t-42 -157.5t-12 -173.5zM408.5 1640q-3.5 8 5.5 17l233 272q13 13 25 13h121 q11 0 24 -13l234 -272q8 -9 4 -17t-17 -8h-127q-13 0 -26 13l-152 194l-151 -194q-13 -13 -27 -13h-131q-12 0 -15.5 8z" />
<glyph unicode="&#xd5;" horiz-adv-x="1460" d="M104 727q0 127 23.5 239.5t74 209t123.5 166t178 108.5t232 39q159 0 281 -59t196.5 -164t112 -240.5t37.5 -296.5q0 -160 -36.5 -294.5t-110 -240t-196.5 -165.5t-284 -60q-129 0 -234.5 39t-178.5 108t-122.5 165t-72.5 207.5t-23 238.5zM311 727q0 -93 12 -173.5 t42.5 -157t77.5 -130.5t121.5 -86.5t170.5 -32.5q95 0 168.5 32.5t120.5 86.5t77 130t42 157t12 174t-12 173.5t-42 157.5t-77 131t-120.5 87t-168.5 33q-96 0 -171 -33t-122 -87t-77 -131t-42 -157.5t-12 -173.5zM399 1714q23 77 77 118.5t130 41.5q49 0 97 -23.5t91 -47 t78 -23.5q66 0 95 59q9 18 26 10l74 -30q17 -6 14 -25q-23 -77 -76 -118.5t-126 -41.5q-50 0 -100 24t-93 47.5t-76 23.5q-67 0 -96 -60q-9 -19 -27 -10l-75 29q-19 9 -13 26z" />
<glyph unicode="&#xd6;" horiz-adv-x="1460" d="M104 727q0 127 23.5 239.5t74 209t123.5 166t178 108.5t232 39q159 0 281 -59t196.5 -164t112 -240.5t37.5 -296.5q0 -160 -36.5 -294.5t-110 -240t-196.5 -165.5t-284 -60q-129 0 -234.5 39t-178.5 108t-122.5 165t-72.5 207.5t-23 238.5zM311 727q0 -93 12 -173.5 t42.5 -157t77.5 -130.5t121.5 -86.5t170.5 -32.5q95 0 168.5 32.5t120.5 86.5t77 130t42 157t12 174t-12 173.5t-42 157.5t-77 131t-120.5 87t-168.5 33q-96 0 -171 -33t-122 -87t-77 -131t-42 -157.5t-12 -173.5zM444 1653v162q0 18 21 18h147q21 0 21 -21v-159 q0 -21 -21 -21h-147q-9 0 -15 6t-6 15zM829 1653v162q0 18 21 18h149q21 0 21 -21v-159q0 -21 -21 -21h-149q-9 0 -15 6t-6 15z" />
<glyph unicode="&#xd7;" horiz-adv-x="1304" d="M164 1022q-14 14 0 29l88 88q14 15 29 0l370 -371l373 371q13 13 29 0l86 -88q15 -15 0 -29l-371 -371l367 -366q15 -15 0 -29l-88 -90q-15 -12 -29 0l-367 369l-366 -369q-13 -13 -29 0l-86 90q-14 14 0 29l367 366z" />
<glyph unicode="&#xd8;" horiz-adv-x="1468" d="M104 727q0 160 38.5 296t114 241t197.5 165t279 60q168 0 301 -76q24 41 78 139q9 19 29 9q13 -6 38.5 -20.5t37.5 -20.5q18 -9 8 -29q-61 -111 -84 -148q122 -115 171.5 -262t49.5 -352q0 -161 -37 -296t-111 -240t-197 -164.5t-284 -59.5q-173 0 -313 76 q-4 -6 -86 -151q-9 -19 -29 -9q-69 38 -74 41q-18 9 -8 29q15 27 45.5 82.5t46.5 83.5q-116 106 -163.5 256.5t-47.5 349.5zM311 727q0 -286 107 -426q87 158 262 474.5t262 475.5q-88 58 -209 58q-95 0 -169 -32.5t-121 -86.5t-77 -130.5t-42.5 -157.5t-12.5 -175zM510 209 q95 -62 223 -62q96 0 170.5 32.5t121 86.5t76.5 130.5t42 157t12 173.5q0 289 -113 438q-89 -158 -266 -478t-266 -478z" />
<glyph unicode="&#xd9;" horiz-adv-x="1404" d="M150 567l4 875q0 18 20 18h160q20 0 20 -20v-873q0 -417 353 -417q348 0 348 417v873q0 18 20 18h160q20 0 20 -20v-873q0 -289 -141.5 -443.5t-408.5 -154.5q-271 0 -413 154.5t-142 445.5zM365 1872q3 8 16 8h207q11 0 24 -10l219 -246q9 -9 5.5 -17t-15.5 -8h-151 q-17 0 -25 11l-272 245q-11 9 -8 17z" />
<glyph unicode="&#xda;" horiz-adv-x="1404" d="M150 567l4 875q0 18 20 18h160q20 0 20 -20v-873q0 -417 353 -417q348 0 348 417v873q0 18 20 18h160q20 0 20 -20v-873q0 -289 -141.5 -443.5t-408.5 -154.5q-271 0 -413 154.5t-142 445.5zM545 1663q-13 16 0 29l262 252q15 14 29 0l86 -84q16 -16 -2 -31l-291 -217 q-15 -12 -29 0z" />
<glyph unicode="&#xdb;" horiz-adv-x="1404" d="M150 567l4 875q0 18 20 18h160q20 0 20 -20v-873q0 -417 353 -417q348 0 348 417v873q0 18 20 18h160q20 0 20 -20v-873q0 -289 -141.5 -443.5t-408.5 -154.5q-271 0 -413 154.5t-142 445.5zM379.5 1607q-3.5 8 5.5 17l233 272q13 13 25 13h121q11 0 24 -13l234 -272 q8 -9 4.5 -17t-16.5 -8h-127q-14 0 -27 13l-151 194l-152 -194q-13 -13 -27 -13h-131q-12 0 -15.5 8z" />
<glyph unicode="&#xdc;" horiz-adv-x="1404" d="M150 567l4 875q0 18 20 18h160q20 0 20 -20v-873q0 -417 353 -417q348 0 348 417v873q0 18 20 18h160q20 0 20 -20v-873q0 -289 -141.5 -443.5t-408.5 -154.5q-271 0 -413 154.5t-142 445.5zM416 1620v162q0 18 20 18h148q20 0 20 -20v-160q0 -21 -20 -21h-148 q-20 0 -20 21zM801 1620v162q0 18 20 18h150q20 0 20 -20v-160q0 -21 -20 -21h-150q-20 0 -20 21z" />
<glyph unicode="&#xdd;" horiz-adv-x="1198" d="M23 1449q4 7 16 7h178q17 0 25 -14l379 -666l380 666q8 14 25 14h166q12 0 16 -7t-2 -17l-487 -844v-568q0 -20 -21 -20h-157q-21 0 -21 20v570l-495 842q-6 10 -2 17zM461 1663q-13 16 0 29l262 252q15 14 29 0l86 -84q16 -16 -2 -31l-291 -217q-15 -12 -29 0z" />
<glyph unicode="&#xde;" horiz-adv-x="1255" d="M176 20v1416q0 20 21 20h157q21 0 21 -20v-246h295q267 0 393.5 -118.5t126.5 -323.5q0 -216 -126.5 -338.5t-391.5 -122.5h-297v-267q0 -20 -21 -20h-157q-21 0 -21 20zM377 463h293q169 0 244 71t75 211q0 136 -76.5 203.5t-244.5 67.5h-291v-553z" />
<glyph unicode="&#xdf;" horiz-adv-x="1212" d="M174 1047q0 192 118.5 314t313.5 122q191 0 305.5 -98t114.5 -265q0 -106 -47.5 -187t-140.5 -120q137 -33 217 -137.5t80 -257.5q0 -193 -117 -314.5t-330 -121.5q-90 0 -178 20q-19 3 -16 23q1 13 3 36.5t4 43.5t5 38q0 9 6.5 14t15.5 3q87 -17 134 -17 q139 0 209.5 75.5t70.5 209.5q0 146 -88.5 215.5t-241.5 69.5h-55q-18 0 -18 20v117q0 18 20 18h49q111 0 170.5 62t59.5 174q0 97 -63 158t-167 61q-123 0 -184.5 -74.5t-61.5 -208.5v-1022q0 -18 -20 -18h-143q-21 0 -21 20z" />
<glyph unicode="&#xe0;" horiz-adv-x="1120" d="M80 293q0 53 13.5 98t32 77.5t57.5 59t67.5 43.5t86.5 31t91 20.5t103.5 12.5t102 7.5t107.5 4.5q31 1 47 2v64q0 217 -227 217q-103 0 -165 -40t-77 -114q-6 -19 -24 -16q-90 4 -139 8q-11 0 -16.5 6.5t-2.5 16.5q24 145 135.5 217.5t292.5 72.5q412 0 412 -409v-652 q0 -20 -21 -20h-96q-19 0 -22 16l-39 134q-52 -80 -144.5 -129.5t-210.5 -49.5q-163 0 -263.5 86.5t-100.5 235.5zM221.5 1450.5q2.5 7.5 16.5 7.5h206q12 0 25 -10l219 -246q9 -9 5.5 -16.5t-15.5 -7.5h-152q-17 0 -24 10l-273 246q-10 9 -7.5 16.5zM272 297 q0 -80 52.5 -125t146.5 -45q149 0 232 84.5t83 216.5v78q-75 -3 -122 -5t-103.5 -7t-90 -11.5t-70.5 -17t-57.5 -25.5t-38.5 -35.5t-25 -47t-7 -60.5z" />
<glyph unicode="&#xe1;" horiz-adv-x="1120" d="M80 293q0 53 13.5 98t32 77.5t57.5 59t67.5 43.5t86.5 31t91 20.5t103.5 12.5t102 7.5t107.5 4.5q31 1 47 2v64q0 217 -227 217q-103 0 -165 -40t-77 -114q-6 -19 -24 -16q-90 4 -139 8q-11 0 -16.5 6.5t-2.5 16.5q24 145 135.5 217.5t292.5 72.5q412 0 412 -409v-652 q0 -20 -21 -20h-96q-19 0 -22 16l-39 134q-52 -80 -144.5 -129.5t-210.5 -49.5q-163 0 -263.5 86.5t-100.5 235.5zM272 297q0 -80 52.5 -125t146.5 -45q149 0 232 84.5t83 216.5v78q-75 -3 -122 -5t-103.5 -7t-90 -11.5t-70.5 -17t-57.5 -25.5t-38.5 -35.5t-25 -47t-7 -60.5 zM422 1241q-13 16 0 29l262 252q14 14 29 0l86 -84q16 -16 -2 -31l-291 -217q-15 -12 -29 0z" />
<glyph unicode="&#xe2;" horiz-adv-x="1120" d="M80 293q0 53 13.5 98t32 77.5t57.5 59t67.5 43.5t86.5 31t91 20.5t103.5 12.5t102 7.5t107.5 4.5q31 1 47 2v64q0 217 -227 217q-103 0 -165 -40t-77 -114q-6 -19 -24 -16q-90 4 -139 8q-11 0 -16.5 6.5t-2.5 16.5q24 145 135.5 217.5t292.5 72.5q412 0 412 -409v-652 q0 -20 -21 -20h-96q-19 0 -22 16l-39 134q-52 -80 -144.5 -129.5t-210.5 -49.5q-163 0 -263.5 86.5t-100.5 235.5zM215.5 1185.5q-3.5 7.5 5.5 16.5l234 273q12 12 24 12h121q13 0 25 -12l233 -273q8 -9 4.5 -16.5t-16.5 -7.5h-127q-15 0 -27 12l-151 194l-152 -194 q-12 -12 -27 -12h-131q-12 0 -15.5 7.5zM272 297q0 -80 52.5 -125t146.5 -45q149 0 232 84.5t83 216.5v78q-75 -3 -122 -5t-103.5 -7t-90 -11.5t-70.5 -17t-57.5 -25.5t-38.5 -35.5t-25 -47t-7 -60.5z" />
<glyph unicode="&#xe3;" horiz-adv-x="1120" d="M80 293q0 53 13.5 98t32 77.5t57.5 59t67.5 43.5t86.5 31t91 20.5t103.5 12.5t102 7.5t107.5 4.5q31 1 47 2v64q0 217 -227 217q-103 0 -165 -40t-77 -114q-6 -19 -24 -16q-90 4 -139 8q-11 0 -16.5 6.5t-2.5 16.5q24 145 135.5 217.5t292.5 72.5q412 0 412 -409v-652 q0 -20 -21 -20h-96q-19 0 -22 16l-39 134q-52 -80 -144.5 -129.5t-210.5 -49.5q-163 0 -263.5 86.5t-100.5 235.5zM207 1260q23 77 77 118t130 41q49 0 97 -23.5t91 -47t78 -23.5q65 0 94 59q10 20 27 11l73 -31q18 -6 15 -25q-23 -76 -76 -117.5t-127 -41.5 q-50 0 -99.5 23.5t-92.5 47t-76 23.5q-67 0 -96 -60q-9 -19 -27 -10l-76 29q-18 9 -12 27zM272 297q0 -80 52.5 -125t146.5 -45q149 0 232 84.5t83 216.5v78q-75 -3 -122 -5t-103.5 -7t-90 -11.5t-70.5 -17t-57.5 -25.5t-38.5 -35.5t-25 -47t-7 -60.5z" />
<glyph unicode="&#xe4;" horiz-adv-x="1120" d="M80 293q0 53 13.5 98t32 77.5t57.5 59t67.5 43.5t86.5 31t91 20.5t103.5 12.5t102 7.5t107.5 4.5q31 1 47 2v64q0 217 -227 217q-103 0 -165 -40t-77 -114q-6 -19 -24 -16q-90 4 -139 8q-11 0 -16.5 6.5t-2.5 16.5q24 145 135.5 217.5t292.5 72.5q412 0 412 -409v-652 q0 -20 -21 -20h-96q-19 0 -22 16l-39 134q-52 -80 -144.5 -129.5t-210.5 -49.5q-163 0 -263.5 86.5t-100.5 235.5zM262 1198v162q0 18 21 18h147q21 0 21 -20v-160q0 -20 -21 -20h-147q-21 0 -21 20zM272 297q0 -80 52.5 -125t146.5 -45q149 0 232 84.5t83 216.5v78 q-75 -3 -122 -5t-103.5 -7t-90 -11.5t-70.5 -17t-57.5 -25.5t-38.5 -35.5t-25 -47t-7 -60.5zM647 1198v162q0 18 21 18h149q21 0 21 -20v-160q0 -20 -21 -20h-149q-21 0 -21 20z" />
<glyph unicode="&#xe5;" horiz-adv-x="1120" d="M80 293q0 53 13.5 98t32 77.5t57.5 59t67.5 43.5t86.5 31t91 20.5t103.5 12.5t102 7.5t107.5 4.5q31 1 47 2v64q0 217 -227 217q-103 0 -165 -40t-77 -114q-6 -19 -24 -16q-90 4 -139 8q-11 0 -16.5 6.5t-2.5 16.5q24 145 135.5 217.5t292.5 72.5q412 0 412 -409v-652 q0 -20 -21 -20h-96q-19 0 -22 16l-39 134q-52 -80 -144.5 -129.5t-210.5 -49.5q-163 0 -263.5 86.5t-100.5 235.5zM272 297q0 -80 52.5 -125t146.5 -45q149 0 232 84.5t83 216.5v78q-75 -3 -122 -5t-103.5 -7t-90 -11.5t-70.5 -17t-57.5 -25.5t-38.5 -35.5t-25 -47t-7 -60.5 zM334 1399q0 101 63.5 161t161.5 60q96 0 160.5 -61t64.5 -160q0 -100 -65.5 -160.5t-159.5 -60.5q-95 0 -160 60.5t-65 160.5zM451 1399q0 -53 29.5 -84t78.5 -31q50 0 80.5 31.5t30.5 83.5t-30.5 83t-80.5 31t-79 -31t-29 -83z" />
<glyph unicode="&#xe6;" horiz-adv-x="1792" d="M80 293q0 71 24 126.5t57 91t94.5 60.5t109 37.5t130 18.5t127.5 7t130 1h14v43q0 134 -49 193t-168 59q-96 0 -157.5 -37t-76.5 -105q-6 -18 -22 -18l-139 -2q-11 0 -16.5 6.5t-2.5 16.5q26 144 134 216t284 72q246 0 342 -170q120 170 348 170q114 0 202 -40 t142.5 -112.5t82.5 -169t28 -212.5v-49q0 -21 -21 -21h-719q2 -155 73.5 -253.5t213.5 -98.5q95 0 158 44t88 124q3 16 22 16h144q21 0 18 -22q-31 -149 -144.5 -231.5t-285.5 -82.5q-140 0 -242 60.5t-153 167.5q-52 -100 -151.5 -162t-247.5 -62q-163 0 -267 83t-104 235z M272 297q0 -81 53.5 -124.5t147.5 -43.5q143 0 220 85.5t77 225.5v49q-66 0 -111.5 -1t-102 -5.5t-94 -12t-77 -21.5t-62 -34t-37 -50t-14.5 -68zM961 616h548q-2 140 -68.5 226t-199.5 86q-130 0 -201 -84t-79 -228z" />
<glyph unicode="&#xe7;" horiz-adv-x="1099" d="M100 524q0 119 31 220t91 177t154.5 119t213.5 43q180 0 294 -102.5t128 -259.5q1 -9 -4.5 -15t-14.5 -6h-149q-17 0 -23 19q-18 92 -77 145.5t-158 53.5q-81 0 -139.5 -33t-90 -90.5t-45.5 -123t-14 -143.5q0 -79 14 -145.5t45.5 -124t89.5 -90.5t138 -33 q104 0 164.5 54.5t80.5 150.5q3 18 21 18h154q23 0 20 -22q-27 -166 -141 -264.5t-299 -98.5q-121 0 -215 41.5t-152 116.5t-87.5 174.5t-29.5 218.5zM365 -406l139 261q8 14 24 14h109q10 0 14.5 -7.5t-0.5 -17.5l-127 -323q-8 -19 -26 -13l-125 60q-18 6 -8 26z" />
<glyph unicode="&#xe8;" horiz-adv-x="1136" d="M100 522q0 251 132.5 406t357.5 155q224 0 345.5 -146.5t121.5 -379.5h2q0 -7 -1 -28t-1 -33q0 -21 -21 -21h-741q3 -152 80.5 -250t218.5 -98q203 0 252 164q3 18 22 18h146q21 0 18 -22q-30 -149 -148 -232.5t-292 -83.5q-232 0 -362 151.5t-130 399.5zM230 1450.5 q2 7.5 16 7.5h207q11 0 24 -10l219 -246q9 -9 5.5 -16.5t-15.5 -7.5h-151q-17 0 -25 10l-272 246q-10 9 -8 16.5zM297 618h569q-2 141 -71.5 226.5t-204.5 85.5q-132 0 -209.5 -86.5t-83.5 -225.5z" />
<glyph unicode="&#xe9;" horiz-adv-x="1136" d="M100 522q0 251 132.5 406t357.5 155q224 0 345.5 -146.5t121.5 -379.5h2q0 -7 -1 -28t-1 -33q0 -21 -21 -21h-741q3 -152 80.5 -250t218.5 -98q203 0 252 164q3 18 22 18h146q21 0 18 -22q-30 -149 -148 -232.5t-292 -83.5q-232 0 -362 151.5t-130 399.5zM297 618h569 q-2 141 -71.5 226.5t-204.5 85.5q-132 0 -209.5 -86.5t-83.5 -225.5zM471 1241q-13 16 0 29l262 252q15 14 29 0l86 -84q16 -16 -2 -31l-291 -217q-15 -12 -29 0z" />
<glyph unicode="&#xea;" horiz-adv-x="1136" d="M100 522q0 251 132.5 406t357.5 155q224 0 345.5 -146.5t121.5 -379.5h2q0 -7 -1 -28t-1 -33q0 -21 -21 -21h-741q3 -152 80.5 -250t218.5 -98q203 0 252 164q3 18 22 18h146q21 0 18 -22q-30 -149 -148 -232.5t-292 -83.5q-232 0 -362 151.5t-130 399.5zM244.5 1185.5 q-3.5 7.5 5.5 16.5l233 273q12 12 25 12h121q12 0 24 -12l234 -273q8 -9 4 -16.5t-17 -7.5h-126q-15 0 -27 12l-152 194l-151 -194q-12 -12 -27 -12h-131q-12 0 -15.5 7.5zM297 618h569q-2 141 -71.5 226.5t-204.5 85.5q-132 0 -209.5 -86.5t-83.5 -225.5z" />
<glyph unicode="&#xeb;" horiz-adv-x="1136" d="M100 522q0 251 132.5 406t357.5 155q224 0 345.5 -146.5t121.5 -379.5h2q0 -7 -1 -28t-1 -33q0 -21 -21 -21h-741q3 -152 80.5 -250t218.5 -98q203 0 252 164q3 18 22 18h146q21 0 18 -22q-30 -149 -148 -232.5t-292 -83.5q-232 0 -362 151.5t-130 399.5zM281 1198v162 q0 18 20 18h148q20 0 20 -20v-160q0 -20 -20 -20h-148q-20 0 -20 20zM297 618h569q-2 141 -71.5 226.5t-204.5 85.5q-132 0 -209.5 -86.5t-83.5 -225.5zM666 1198v162q0 18 20 18h150q20 0 20 -20v-160q0 -20 -20 -20h-150q-20 0 -20 20z" />
<glyph unicode="&#xec;" horiz-adv-x="497" d="M-110 1419.5q2 7.5 16 7.5h207q11 0 24 -10l219 -246q9 -9 5.5 -16.5t-15.5 -7.5h-151q-17 0 -25 10l-272 246q-10 9 -8 16.5zM152 20v1012q0 19 20 19h152q20 0 20 -21v-1010q0 -20 -20 -20h-152q-20 0 -20 20z" />
<glyph unicode="&#xed;" horiz-adv-x="497" d="M152 20v1012q0 19 20 19h152q20 0 20 -21v-1010q0 -20 -20 -20h-152q-20 0 -20 20zM152 1210q-13 16 0 29l262 252q14 14 28 0l86 -84q16 -16 -2 -31l-290 -217q-15 -12 -29 0z" />
<glyph unicode="&#xee;" horiz-adv-x="497" d="M-75 1154.5q-4 7.5 5 16.5l234 273q12 12 24 12h121q13 0 25 -12l233 -273q8 -9 4.5 -16.5t-16.5 -7.5h-127q-15 0 -27 12l-151 195l-152 -195q-12 -12 -26 -12h-131q-12 0 -16 7.5zM152 20v1012q0 19 20 19h152q20 0 20 -21v-1010q0 -20 -20 -20h-152q-20 0 -20 20z" />
<glyph unicode="&#xef;" horiz-adv-x="497" d="M-39 1167v162q0 19 21 19h147q21 0 21 -21v-160q0 -20 -21 -20h-147q-21 0 -21 20zM152 20v1012q0 19 20 19h152q20 0 20 -21v-1010q0 -20 -20 -20h-152q-20 0 -20 20zM346 1167v162q0 19 21 19h149q21 0 21 -21v-160q0 -20 -21 -20h-149q-21 0 -21 20z" />
<glyph unicode="&#xf0;" horiz-adv-x="1183" d="M100 498q0 236 127 386t346 150q130 0 207 -71q-50 173 -188 268q-29 -11 -88.5 -35t-89.5 -35q-18 -6 -27 13q-5 10 -14.5 30.5t-14.5 30.5q-6 21 13 27q20 8 61 23.5t62 23.5q-50 38 -134 86q-23 13 -2 28q14 9 39.5 29t34.5 27q11 11 27 4q120 -55 194 -109 q89 36 148 58q17 6 26 -13q18 -45 27 -63q6 -19 -10 -27q-17 -6 -48.5 -18.5t-47.5 -18.5q142 -125 245 -327q90 -167 90 -420q0 -260 -128.5 -417t-364.5 -157q-232 0 -361 146t-129 381zM297 504q0 -74 14.5 -136.5t47 -117t91.5 -86t140 -31.5t140 30.5t92.5 84t49 118 t15.5 140.5q0 169 -72.5 268.5t-228.5 99.5q-77 0 -135 -31t-90.5 -85t-48 -117.5t-15.5 -136.5z" />
<glyph unicode="&#xf1;" horiz-adv-x="1179" d="M154 1030q0 19 20 19h84q17 0 23 -17l57 -143q58 94 149.5 142t196.5 48q175 0 265.5 -100t90.5 -285v-678q0 -18 -20 -18h-150q-20 0 -20 20v646q0 126 -50.5 185.5t-158.5 59.5q-63 0 -113 -20.5t-83.5 -56.5t-56 -86t-32.5 -106t-10 -120v-500q0 -20 -20 -20h-148 q-20 0 -20 20zM258 1260q23 77 77 118t130 41q49 0 97 -23.5t91 -47t78 -23.5q65 0 94 59q10 20 27 11l74 -31q17 -6 14 -25q-23 -76 -76 -117.5t-127 -41.5q-50 0 -99.5 23.5t-92.5 47t-76 23.5q-67 0 -96 -60q-9 -19 -27 -10l-76 29q-18 9 -12 27z" />
<glyph unicode="&#xf2;" horiz-adv-x="1177" d="M100 526q0 250 132 403.5t364 153.5q235 0 364.5 -153t129.5 -402q0 -164 -56 -288.5t-169.5 -196.5t-270.5 -72q-159 0 -272 72t-167.5 195.5t-54.5 287.5zM230 1450.5q2 7.5 16 7.5h207q11 0 24 -10l219 -246q9 -9 5.5 -16.5t-15.5 -7.5h-151q-17 0 -25 10l-272 246 q-10 9 -8 16.5zM297 528q0 -82 15.5 -149.5t49 -124t92.5 -88t140 -31.5q66 0 118 21.5t85.5 58t55.5 87.5t31 106.5t9 119.5q0 63 -9.5 118.5t-31.5 106t-55.5 86.5t-85 57.5t-117.5 21.5q-80 0 -139 -32t-92.5 -88t-49.5 -123.5t-16 -146.5z" />
<glyph unicode="&#xf3;" horiz-adv-x="1177" d="M100 526q0 250 132 403.5t364 153.5q235 0 364.5 -153t129.5 -402q0 -164 -56 -288.5t-169.5 -196.5t-270.5 -72q-159 0 -272 72t-167.5 195.5t-54.5 287.5zM297 528q0 -82 15.5 -149.5t49 -124t92.5 -88t140 -31.5q66 0 118 21.5t85.5 58t55.5 87.5t31 106.5t9 119.5 q0 63 -9.5 118.5t-31.5 106t-55.5 86.5t-85 57.5t-117.5 21.5q-80 0 -139 -32t-92.5 -88t-49.5 -123.5t-16 -146.5zM471 1241q-13 16 0 29l262 252q15 14 29 0l86 -84q16 -16 -2 -31l-291 -217q-15 -12 -29 0z" />
<glyph unicode="&#xf4;" horiz-adv-x="1177" d="M100 526q0 250 132 403.5t364 153.5q235 0 364.5 -153t129.5 -402q0 -164 -56 -288.5t-169.5 -196.5t-270.5 -72q-159 0 -272 72t-167.5 195.5t-54.5 287.5zM265 1185.5q-4 7.5 5 16.5l234 273q12 12 24 12h121q13 0 25 -12l233 -273q8 -9 4.5 -16.5t-16.5 -7.5h-127 q-15 0 -27 12l-151 194l-152 -194q-12 -12 -26 -12h-131q-12 0 -16 7.5zM297 528q0 -82 15.5 -149.5t49 -124t92.5 -88t140 -31.5q66 0 118 21.5t85.5 58t55.5 87.5t31 106.5t9 119.5q0 63 -9.5 118.5t-31.5 106t-55.5 86.5t-85 57.5t-117.5 21.5q-80 0 -139 -32t-92.5 -88 t-49.5 -123.5t-16 -146.5z" />
<glyph unicode="&#xf5;" horiz-adv-x="1177" d="M100 526q0 250 132 403.5t364 153.5q235 0 364.5 -153t129.5 -402q0 -164 -56 -288.5t-169.5 -196.5t-270.5 -72q-159 0 -272 72t-167.5 195.5t-54.5 287.5zM256 1260q23 77 77 118t130 41q49 0 97 -23.5t91 -47t78 -23.5q65 0 94 59q10 20 27 11l74 -31q17 -6 14 -25 q-23 -76 -76 -117.5t-127 -41.5q-50 0 -99.5 23.5t-92.5 47t-76 23.5q-67 0 -96 -60q-9 -19 -27 -10l-76 29q-18 9 -12 27zM297 528q0 -82 15.5 -149.5t49 -124t92.5 -88t140 -31.5q66 0 118 21.5t85.5 58t55.5 87.5t31 106.5t9 119.5q0 63 -9.5 118.5t-31.5 106t-55.5 86.5 t-85 57.5t-117.5 21.5q-80 0 -139 -32t-92.5 -88t-49.5 -123.5t-16 -146.5z" />
<glyph unicode="&#xf6;" horiz-adv-x="1177" d="M100 526q0 250 132 403.5t364 153.5q235 0 364.5 -153t129.5 -402q0 -164 -56 -288.5t-169.5 -196.5t-270.5 -72q-159 0 -272 72t-167.5 195.5t-54.5 287.5zM297 528q0 -82 15.5 -149.5t49 -124t92.5 -88t140 -31.5q66 0 118 21.5t85.5 58t55.5 87.5t31 106.5t9 119.5 q0 63 -9.5 118.5t-31.5 106t-55.5 86.5t-85 57.5t-117.5 21.5q-80 0 -139 -32t-92.5 -88t-49.5 -123.5t-16 -146.5zM301 1198v162q0 18 21 18h147q20 0 20 -20v-160q0 -20 -20 -20h-147q-21 0 -21 20zM686 1198v162q0 18 21 18h149q21 0 21 -20v-160q0 -20 -21 -20h-149 q-21 0 -21 20z" />
<glyph unicode="&#xf7;" horiz-adv-x="1271" d="M154 588v129q0 20 20 20h922q20 0 20 -20v-131q0 -19 -20 -19h-922q-20 0 -20 21zM528 162v186q0 19 21 19h170q20 0 20 -21v-184q0 -21 -20 -21h-170q-9 0 -15 6t-6 15zM528 963v186q0 20 21 20h170q20 0 20 -20v-186q0 -21 -20 -21h-170q-21 0 -21 21z" />
<glyph unicode="&#xf8;" d="M100 524q0 249 131.5 403t362.5 154q121 0 217 -47q26 45 70 127q9 15 24 15h86q11 0 15 -7.5t0 -17.5q-14 -26 -45.5 -89.5t-47.5 -90.5q177 -158 177 -443q0 -250 -130.5 -403.5t-367.5 -153.5q-124 0 -217 43q-27 -47 -74 -131q-8 -14 -25 -14l-77 2q-12 0 -16 7.5 t1 17.5q13 26 45 92t45 90q-91 83 -132.5 190t-41.5 256zM297 526q0 -70 21 -149.5t53 -128.5l356 639q-57 31 -133 31q-80 0 -139 -32t-92.5 -88.5t-49.5 -124t-16 -147.5zM461 164q57 -31 133 -31q74 0 131 28t91 77t52.5 108.5t22.5 130.5q0 214 -72 328 q-54 -95 -114 -203t-131.5 -236t-112.5 -202z" />
<glyph unicode="&#xf9;" horiz-adv-x="1169" d="M143 354l4 680q0 19 21 19h149q21 0 21 -21v-645q0 -128 49.5 -188t157.5 -60q77 0 134 32t90 90t49 132t16 166v471q0 21 20 21h147q21 0 21 -21v-1010q0 -20 -21 -20h-83q-18 0 -23 16q-9 24 -27.5 73t-27.5 73q-58 -93 -147 -142t-193 -49q-177 0 -267 98.5t-90 284.5 zM246 1422q3 8 16 8h207q10 0 25 -11l219 -245q9 -9 5 -17t-16 -8h-151q-17 0 -25 10l-272 246q-11 9 -8 17z" />
<glyph unicode="&#xfa;" horiz-adv-x="1169" d="M143 354l4 680q0 19 21 19h149q21 0 21 -21v-645q0 -128 49.5 -188t157.5 -60q77 0 134 32t90 90t49 132t16 166v471q0 21 20 21h147q21 0 21 -21v-1010q0 -20 -21 -20h-83q-18 0 -23 16q-9 24 -27.5 73t-27.5 73q-58 -93 -147 -142t-193 -49q-177 0 -267 98.5t-90 284.5 zM426 1212q-13 16 0 29l262 252q14 15 29 0l86 -84q16 -16 -2 -31l-291 -217q-15 -12 -29 0z" />
<glyph unicode="&#xfb;" horiz-adv-x="1169" d="M143 354l4 680q0 19 21 19h149q21 0 21 -21v-645q0 -128 49.5 -188t157.5 -60q77 0 134 32t90 90t49 132t16 166v471q0 21 20 21h147q21 0 21 -21v-1010q0 -20 -21 -20h-83q-18 0 -23 16q-9 24 -27.5 73t-27.5 73q-58 -93 -147 -142t-193 -49q-177 0 -267 98.5t-90 284.5 zM260.5 1157q-3.5 8 5.5 17l234 272q12 12 24 12h121q13 0 25 -12l233 -272q8 -9 4.5 -17t-16.5 -8h-127q-15 0 -27 12l-151 195l-152 -195q-12 -12 -26 -12h-132q-12 0 -15.5 8z" />
<glyph unicode="&#xfc;" horiz-adv-x="1169" d="M143 354l4 680q0 19 21 19h149q21 0 21 -21v-645q0 -128 49.5 -188t157.5 -60q77 0 134 32t90 90t49 132t16 166v471q0 21 20 21h147q21 0 21 -21v-1010q0 -20 -21 -20h-83q-18 0 -23 16q-9 24 -27.5 73t-27.5 73q-58 -93 -147 -142t-193 -49q-177 0 -267 98.5t-90 284.5 zM297 1169v162q0 19 20 19h148q20 0 20 -21v-160q0 -20 -20 -20h-148q-20 0 -20 20zM682 1169v162q0 19 20 19h150q20 0 20 -21v-160q0 -20 -20 -20h-150q-20 0 -20 20z" />
<glyph unicode="&#xfd;" horiz-adv-x="1030" d="M24.5 1045.5q4.5 7.5 16.5 7.5h172q17 0 23 -17q240 -619 311 -805q129 354 291 805q7 17 24 17h162q10 0 14.5 -7t1.5 -18q-14 -36 -426 -1094q-23 -60 -55 -133q-47 -106 -114.5 -159.5t-176.5 -53.5q-65 0 -155 25q-20 3 -17 22t7.5 57.5t7.5 57.5q3 21 24 14 q43 -14 103 -14q57 0 92.5 30t62.5 95q21 49 56 137q-77 187 -221.5 531.5t-202.5 484.5q-5 10 -0.5 17.5zM377 1210q-13 16 0 29l262 252q15 15 29 0l86 -84q16 -16 -2 -31l-291 -217q-15 -12 -29 0z" />
<glyph unicode="&#xfe;" horiz-adv-x="1218" d="M158 -381v883v944q0 20 20 20h148q20 0 20 -20v-535q53 82 139 125t189 43q111 0 197 -43.5t139 -120.5t79.5 -175.5t26.5 -213.5q0 -116 -29 -216.5t-84.5 -177t-142.5 -120t-196 -43.5q-214 0 -318 160v-510q0 -20 -20 -20h-148q-20 0 -20 20zM344 537q0 -406 291 -406 q138 0 212.5 108t74.5 289q0 178 -73 285t-208 107q-149 0 -223 -102.5t-74 -272.5v-8z" />
<glyph unicode="&#xff;" horiz-adv-x="1030" d="M24.5 1045.5q4.5 7.5 16.5 7.5h172q17 0 23 -17q240 -619 311 -805q129 354 291 805q7 17 24 17h162q10 0 14.5 -7t1.5 -18q-14 -36 -426 -1094q-23 -60 -55 -133q-47 -106 -114.5 -159.5t-176.5 -53.5q-65 0 -155 25q-20 3 -17 22t7.5 57.5t7.5 57.5q3 21 24 14 q43 -14 103 -14q57 0 92.5 30t62.5 95q21 49 56 137q-77 187 -221.5 531.5t-202.5 484.5q-5 10 -0.5 17.5zM227 1167v162q0 19 21 19h147q21 0 21 -21v-160q0 -20 -21 -20h-147q-21 0 -21 20zM612 1167v162q0 19 21 19h149q21 0 21 -21v-160q0 -20 -21 -20h-149 q-21 0 -21 20z" />
<glyph unicode="&#x152;" horiz-adv-x="2162" d="M109 723q0 368 163 561q163 201 443 201q134 0 239.5 -53.5t169.5 -147.5v146q0 20 21 20h899q20 0 20 -20v-136q0 -20 -20 -20h-725v-432h657q19 0 19 -21v-137q0 -20 -21 -20h-657v-488h743q19 0 19 -20v-136q0 -20 -21 -20h-919q-19 0 -19 20l4 144 q-65 -94 -169 -146.5t-240 -52.5q-127 0 -230 40t-172 109.5t-115.5 166.5t-67.5 207t-21 235zM315 725q0 -584 404 -584q80 0 143.5 22.5t107 64.5t74 95.5t47 123.5t24 140t7.5 152q0 90 -10.5 167.5t-38.5 153t-72 128t-116 85t-166 32.5t-166.5 -33.5t-116.5 -87.5 t-72 -131.5t-38.5 -156.5t-10.5 -171z" />
<glyph unicode="&#x153;" horiz-adv-x="1918" d="M100 524q0 161 54.5 285.5t166.5 199t269 74.5q133 0 232.5 -58.5t154.5 -162.5q60 106 160 163.5t227 57.5q220 0 340.5 -146t120.5 -380h2q0 -7 -1 -28t-1 -33q0 -21 -21 -21h-727q2 -152 78 -251t213 -99q99 0 162.5 44t87.5 122q3 18 22 18h144q21 0 18 -22 q-30 -149 -146.5 -232.5t-287.5 -83.5q-138 0 -231.5 58t-159.5 166q-59 -105 -157.5 -164.5t-231.5 -59.5q-121 0 -215 41.5t-153 116.5t-89.5 175t-30.5 220zM299 526q0 -81 14.5 -148.5t47 -124t91.5 -88.5t140 -32q80 0 138.5 32t90.5 88.5t46.5 123.5t15.5 149 q0 83 -15 151t-48 123.5t-91 86.5t-137 31q-64 0 -115 -21.5t-84 -57.5t-54.5 -87t-30.5 -106.5t-9 -119.5zM1077 618h559q-2 138 -70 225t-202 87q-127 0 -204 -87.5t-83 -224.5z" />
<glyph unicode="&#x178;" horiz-adv-x="1198" d="M23 1449q4 7 16 7h178q17 0 25 -14l379 -666l380 666q8 14 25 14h166q12 0 16 -7t-2 -17l-487 -844v-568q0 -20 -21 -20h-157q-21 0 -21 20v570l-495 842q-6 10 -2 17zM311 1620v162q0 18 21 18h147q21 0 21 -20v-160q0 -21 -21 -21h-147q-9 0 -15 6t-6 15zM696 1620v162 q0 18 21 18h149q21 0 21 -20v-160q0 -21 -21 -21h-149q-9 0 -15 6t-6 15z" />
<glyph unicode="&#x2c6;" horiz-adv-x="763" d="M58 1206q-4 8 5 17l234 272q12 12 25 12h120q13 0 25 -12l233 -272q8 -9 4.5 -17t-16.5 -8h-127q-14 0 -26 12l-152 195l-152 -195q-12 -12 -26 -12h-131q-12 0 -16 8z" />
<glyph unicode="&#x2dc;" horiz-adv-x="770" d="M53 1325q23 77 77 118.5t130 41.5q49 0 97 -23.5t91 -47t78 -23.5q66 0 95 59q9 18 26 10l74 -30q17 -6 14 -25q-23 -76 -76 -118t-127 -42q-50 0 -99.5 23.5t-92.5 47t-76 23.5q-67 0 -96 -59q-9 -19 -27 -10l-75 28q-19 9 -13 27z" />
<glyph unicode="&#x2000;" horiz-adv-x="991" />
<glyph unicode="&#x2001;" horiz-adv-x="1983" />
<glyph unicode="&#x2002;" horiz-adv-x="991" />
<glyph unicode="&#x2003;" horiz-adv-x="1983" />
<glyph unicode="&#x2004;" horiz-adv-x="661" />
<glyph unicode="&#x2005;" horiz-adv-x="495" />
<glyph unicode="&#x2006;" horiz-adv-x="330" />
<glyph unicode="&#x2007;" horiz-adv-x="330" />
<glyph unicode="&#x2008;" horiz-adv-x="247" />
<glyph unicode="&#x2009;" horiz-adv-x="396" />
<glyph unicode="&#x200a;" horiz-adv-x="110" />
<glyph unicode="&#x2010;" horiz-adv-x="858" d="M117 543v139q0 20 20 20h582q20 0 20 -20v-139q0 -21 -20 -21h-582q-20 0 -20 21z" />
<glyph unicode="&#x2011;" horiz-adv-x="858" d="M117 543v139q0 20 20 20h582q20 0 20 -20v-139q0 -21 -20 -21h-582q-20 0 -20 21z" />
<glyph unicode="&#x2012;" horiz-adv-x="858" d="M117 543v139q0 20 20 20h582q20 0 20 -20v-139q0 -21 -20 -21h-582q-20 0 -20 21z" />
<glyph unicode="&#x2013;" horiz-adv-x="1163" d="M70 543v139q0 20 20 20h985q19 0 19 -20v-139q0 -21 -21 -21h-985q-18 0 -18 21z" />
<glyph unicode="&#x2014;" horiz-adv-x="2174" d="M70 543v137q0 20 20 20h1995q18 0 18 -20v-137q0 -21 -20 -21h-1995q-18 0 -18 21z" />
<glyph unicode="&#x2018;" horiz-adv-x="477" d="M127 991v234q5 108 40 183t116 130q15 9 26 -2q4 -3 43 -49q12 -15 -2 -27q-50 -44 -70 -95.5t-22 -127.5h78q20 0 20 -20v-228q0 -18 -20 -18h-191q-18 0 -18 20z" />
<glyph unicode="&#x2019;" horiz-adv-x="456" d="M139 1239v227q0 19 21 19h190q19 0 19 -21v-233q-5 -109 -40 -183.5t-116 -127.5q-15 -12 -27 2q-6 6 -21 23t-22 24q-12 14 2 28q50 42 71 94t24 128h-80q-21 0 -21 20z" />
<glyph unicode="&#x201a;" horiz-adv-x="489" d="M127 23v227q0 18 20 18h191q18 0 18 -20v-234q-5 -109 -39.5 -183.5t-115.5 -127.5q-15 -12 -27 2q-5 5 -41 47q-15 14 0 29q50 42 70.5 93.5t23.5 127.5h-80q-20 0 -20 21z" />
<glyph unicode="&#x201c;" horiz-adv-x="825" d="M115 991v234q3 109 37.5 183.5t117.5 129.5q16 9 27 -2q6 -7 20.5 -24.5t20.5 -24.5q15 -15 0 -27q-52 -44 -72 -95.5t-22 -127.5h78q20 0 20 -20v-228q0 -18 -20 -18h-187q-20 0 -20 20zM473 989v234q3 108 38 183t116 130q15 9 26 -2q4 -3 43 -49q12 -15 -2 -27 q-50 -44 -70 -95.5t-22 -127.5h78q20 0 20 -21v-227q0 -18 -20 -18h-186q-21 0 -21 20z" />
<glyph unicode="&#x201d;" horiz-adv-x="811" d="M127 1260v227q0 18 20 18h191q18 0 18 -20v-234q-5 -109 -39.5 -183.5t-115.5 -127.5q-15 -12 -27 0q-7 7 -43 49q-12 15 2 27q50 44 70.5 95.5t23.5 127.5h-80q-20 0 -20 21zM485 1257v228q0 18 21 18h186q21 0 21 -20v-234q-3 -108 -38 -183t-116 -128q-15 -12 -27 0 q-7 7 -43 49q-12 15 3 27q50 44 70 95.5t22 127.5h-78q-21 0 -21 20z" />
<glyph unicode="&#x201e;" horiz-adv-x="882" d="M115 25v227q0 18 20 18h191q18 0 18 -20v-234q-5 -109 -40 -183.5t-116 -127.5q-15 -12 -26 2q-5 5 -41 47q-15 14 0 29q50 42 70.5 93.5t23.5 127.5h-80q-20 0 -20 21zM487 23v227q0 18 21 18h186q21 0 21 -20v-234q-3 -108 -38 -183t-116 -128q-14 -12 -26 0 q-7 7 -43 49q-12 15 2 27q50 44 70 95.5t22 127.5h-78q-9 0 -15 6t-6 15z" />
<glyph unicode="&#x2022;" horiz-adv-x="819" d="M133 672q0 118 80 196t197 78t195.5 -78t78.5 -196q0 -120 -78.5 -198.5t-195.5 -78.5t-197 79t-80 198z" />
<glyph unicode="&#x2026;" horiz-adv-x="1857" d="M156 20v211q0 19 20 19h191q18 0 18 -21v-211q0 -18 -20 -18h-191q-18 0 -18 20zM813 20v211q0 19 21 19h186q20 0 20 -21v-211q0 -18 -20 -18h-186q-21 0 -21 20zM1470 20v211q0 19 21 19h190q19 0 19 -21v-211q0 -18 -21 -18h-190q-19 0 -19 20z" />
<glyph unicode="&#x202f;" horiz-adv-x="396" />
<glyph unicode="&#x2039;" horiz-adv-x="645" d="M90 549q-12 15 0 29q47 72 283 421q10 17 26 7q52 -25 111 -64q19 -10 6 -29q-90 -136 -237 -350q45 -66 125.5 -187.5t109.5 -164.5q13 -19 -6 -29q-18 -10 -55.5 -32.5t-55.5 -32.5q-16 -10 -26 6q-143 215 -281 426z" />
<glyph unicode="&#x203a;" horiz-adv-x="645" d="M94 915q-13 19 6 29l113 64q17 10 27 -7l282 -421q12 -15 0 -29l-280 -428q-10 -16 -27 -6l-111 65q-19 10 -6 29l234 354z" />
<glyph unicode="&#x205f;" horiz-adv-x="495" />
<glyph unicode="&#x20ac;" horiz-adv-x="1228" d="M59 510q10 71 11 90q3 18 20 18h113q-2 29 -2 87q0 61 2 90h-123q-21 0 -21 22q10 71 11 90q3 19 20 19h127q37 233 182.5 378.5t372.5 145.5q147 0 245.5 -60t160.5 -178q9 -15 -9 -26q-16 -13 -48 -35t-44 -31q-16 -13 -28 6q-52 81 -119 117.5t-162 36.5 q-147 0 -238 -95t-116 -259h487q11 0 16.5 -6.5t2.5 -16.5t-29 -92q-6 -16 -25 -16h-469q0 -15 -1 -44t-1 -44q0 -16 1 -45.5t1 -43.5h422q10 0 14.5 -6t0.5 -16q-5 -16 -14.5 -46.5t-14.5 -45.5q-7 -17 -25 -17h-370q27 -160 117 -254t235 -94q107 0 177 41.5t114 124.5 q9 18 28 8l95 -53q17 -10 8 -29q-116 -260 -424 -260q-230 0 -370 140.5t-175 375.5h-135q-21 0 -21 23z" />
<glyph unicode="&#x2122;" horiz-adv-x="1794" d="M37 1343v91q0 20 20 20h605q18 0 18 -20v-91q0 -20 -21 -20h-229v-657q0 -19 -20 -19h-107q-18 0 -18 21v657l-230 -2q-18 0 -18 20zM803 1434q0 18 20 18h158q19 0 25 -16l219 -596l219 596q6 16 24 16h154q20 0 20 -20v-768q0 -21 -20 -21h-98q-9 0 -15 6t-6 15v587 l-217 -581q-7 -17 -22 -17h-82q-16 0 -23 17l-217 579v-585q0 -19 -20 -19h-97q-20 0 -20 21z" />
<glyph unicode="&#xe000;" horiz-adv-x="1054" d="M0 0v1055h1055v-1055h-1055z" />
<glyph unicode="&#xfb01;" horiz-adv-x="1038" d="M41 913v117q0 19 20 19h160v108q0 154 89.5 241t240.5 87q89 0 166 -19q19 -3 16 -22l-12 -113q-3 -19 -23 -16q-49 10 -118 10q-78 0 -122 -41t-44 -125v-110h262q18 0 18 -21v-117q0 -18 -20 -18h-262v-873q0 -20 -21 -20h-149q-21 0 -21 20v875l-160 -2q-20 0 -20 20z M750 20v1012q0 19 20 19h152q20 0 20 -21v-1010q0 -20 -20 -20h-152q-20 0 -20 20z" />
<glyph unicode="&#xfb02;" horiz-adv-x="1095" d="M41 913v117q0 19 20 19h160v108q0 154 89.5 241t240.5 87q89 0 166 -19q19 -3 16 -22l-12 -113q-3 -19 -23 -16q-49 10 -118 10q-78 0 -122 -41t-44 -125v-110h262q18 0 18 -21v-117q0 -18 -20 -18h-262v-873q0 -20 -21 -20h-149q-21 0 -21 20v875l-160 -2q-20 0 -20 20z M846 20v1428q0 20 20 20h148q20 0 20 -20v-1428q0 -20 -20 -20h-148q-20 0 -20 20z" />
</font>
</defs>
</svg>
